<svg width="14" height="14" viewBox="0 0 14 14" fill="none" xmlns="http://www.w3.org/2000/svg">
<g clip-path="url(#clip0_8_25)">
<path d="M13.997 4.28481C13.997 2.44419 12.505 0.952167 10.6644 0.952167C8.82378 0.952167 7.33175 2.44419 7.33175 4.28481C7.33175 6.12543 8.82378 7.61744 10.6644 7.61744C11.0427 7.61744 11.4048 7.55149 11.7437 7.43529C10.9938 11.7366 7.63953 14.5105 10.7489 12.2276C14.1967 9.69601 14.0007 4.38666 13.9969 4.28936C13.9969 4.28785 13.997 4.2865 13.997 4.28481Z" fill="#C4C4C4"/>
<path d="M6.66523 4.28481C6.66523 2.44419 5.1732 0.952167 3.33258 0.952167C1.49196 0.952167 -7.20024e-05 2.44419 -7.20024e-05 4.28481C-7.20024e-05 6.12543 1.49199 7.61744 3.33261 7.61744C3.7109 7.61744 4.07297 7.55149 4.41195 7.43529C3.66196 11.7366 0.307736 14.5105 3.41709 12.2276C6.8649 9.69601 6.66895 4.38666 6.66506 4.28936C6.66506 4.28785 6.66523 4.2865 6.66523 4.28481Z" fill="#C4C4C4"/>
</g>
<defs>
<clipPath id="clip0_8_25">
<rect width="14" height="14" fill="white" transform="translate(14 14) rotate(180)"/>
</clipPath>
</defs>
</svg>
