<svg width="22" height="23" viewBox="0 0 22 23" fill="none" xmlns="http://www.w3.org/2000/svg">
<g clip-path="url(#clip0_40_4725)">
<path d="M3 6.61813C4.65685 6.61813 6 5.30062 6 3.6754C6 2.05017 4.65685 0.732666 3 0.732666C1.34315 0.732666 0 2.05017 0 3.6754C0 5.30062 1.34315 6.61813 3 6.61813Z" fill="#054055"/>
<path d="M11 6.61813C12.6569 6.61813 14 5.30062 14 3.6754C14 2.05017 12.6569 0.732666 11 0.732666C9.34315 0.732666 8 2.05017 8 3.6754C8 5.30062 9.34315 6.61813 11 6.61813Z" fill="#054055"/>
<path d="M19 6.61813C20.6569 6.61813 22 5.30062 22 3.6754C22 2.05017 20.6569 0.732666 19 0.732666C17.3431 0.732666 16 2.05017 16 3.6754C16 5.30062 17.3431 6.61813 19 6.61813Z" fill="#054055"/>
<path d="M3 14.4653C4.65685 14.4653 6 13.1478 6 11.5226C6 9.89734 4.65685 8.57983 3 8.57983C1.34315 8.57983 0 9.89734 0 11.5226C0 13.1478 1.34315 14.4653 3 14.4653Z" fill="#054055"/>
<path d="M11 14.4653C12.6569 14.4653 14 13.1478 14 11.5226C14 9.89734 12.6569 8.57983 11 8.57983C9.34315 8.57983 8 9.89734 8 11.5226C8 13.1478 9.34315 14.4653 11 14.4653Z" fill="#054055"/>
<path d="M19 14.4653C20.6569 14.4653 22 13.1478 22 11.5226C22 9.89734 20.6569 8.57983 19 8.57983C17.3431 8.57983 16 9.89734 16 11.5226C16 13.1478 17.3431 14.4653 19 14.4653Z" fill="#054055"/>
<path d="M3 22.3127C4.65685 22.3127 6 20.9952 6 19.37C6 17.7448 4.65685 16.4272 3 16.4272C1.34315 16.4272 0 17.7448 0 19.37C0 20.9952 1.34315 22.3127 3 22.3127Z" fill="#054055"/>
<path d="M11 22.3127C12.6569 22.3127 14 20.9952 14 19.37C14 17.7448 12.6569 16.4272 11 16.4272C9.34315 16.4272 8 17.7448 8 19.37C8 20.9952 9.34315 22.3127 11 22.3127Z" fill="#054055"/>
<path d="M19 22.3127C20.6569 22.3127 22 20.9952 22 19.37C22 17.7448 20.6569 16.4272 19 16.4272C17.3431 16.4272 16 17.7448 16 19.37C16 20.9952 17.3431 22.3127 19 22.3127Z" fill="#054055"/>
</g>
<defs>
<clipPath id="clip0_40_4725">
<rect width="22" height="21.58" fill="white" transform="translate(0 0.732666)"/>
</clipPath>
</defs>
</svg>
