<svg width="70" height="70" viewBox="0 0 70 70" fill="none" xmlns="http://www.w3.org/2000/svg">
<g clip-path="url(#clip0_8_144)">
<path d="M64.8167 4.375L61.6863 2.49266C60.1637 1.57719 58.4206 1.09375 56.6459 1.09375H47.0507C45.8468 1.09375 44.8677 2.07484 44.8677 3.28125C44.8677 4.08188 45.0991 4.82234 45.4746 5.46875H40.5018C38.6965 5.46875 37.2274 6.94094 37.2274 8.75C37.2274 9.135 37.3059 9.50031 37.4282 9.84375H33.9529C32.1476 9.84375 30.6785 11.3159 30.6785 13.125V16.8667C26.2012 18.223 23.0381 22.4208 23.0381 27.1688C23.0381 31.9495 26.2416 36.2042 30.8269 37.5167L35.2791 38.7909C37.0691 39.3039 38.3188 40.9653 38.3188 42.8312C38.3188 45.1478 36.4382 47.0312 34.1276 47.0312H33.7783C31.4676 47.0312 29.587 45.1467 29.587 42.8312V42.6562C29.587 40.8472 28.1179 39.375 26.3126 39.375C24.5073 39.375 23.0381 40.8472 23.0381 42.6562V42.8312C23.0381 45.1905 23.8207 47.413 25.1556 49.2188H22.4313C22.8067 48.5723 23.0381 47.8319 23.0381 47.0312C23.0381 45.8248 22.0591 44.8438 20.8552 44.8438H11.26C9.48523 44.8438 7.74214 45.3272 6.21843 46.2427L3.08916 48.125H0.117065V65.625H3.08916L6.21953 67.5073C7.74214 68.4228 9.48523 68.9062 11.26 68.9062H25.2211C27.0264 68.9062 28.4955 67.4341 28.4955 65.625C28.4955 65.193 28.4071 64.7828 28.2554 64.4044C29.647 64.0259 30.6785 62.7627 30.6785 61.25C30.6785 60.865 30.5999 60.4997 30.4777 60.1562H33.9529C35.7582 60.1562 37.2274 58.6841 37.2274 56.875V53.1333C41.7046 51.777 44.8677 47.5792 44.8677 42.8312C44.8677 38.0505 41.6642 33.7958 37.0789 32.4833L32.6268 31.2091C30.8368 30.6961 29.587 29.0347 29.587 27.1688C29.587 24.8522 31.4676 22.9688 33.7783 22.9688H34.1265C36.4382 22.9688 38.3177 24.8533 38.3177 27.1688V27.3438C38.3177 29.1528 39.7869 30.625 41.5922 30.625C43.3975 30.625 44.8666 29.1528 44.8666 27.3438V27.1688C44.8666 26.483 44.7935 25.8114 44.6669 25.1562H56.6437C58.4184 25.1562 60.1615 24.6728 61.6852 23.7573L64.8167 21.875H67.7888V4.375H64.8167ZM28.4955 61.25C28.4955 61.8527 28.0055 62.3438 27.404 62.3438H25.2211H14.3063V64.5312H25.2211C25.8225 64.5312 26.3126 65.0223 26.3126 65.625C26.3126 66.2277 25.8225 66.7188 25.2211 66.7188H11.26C9.88035 66.7188 8.52582 66.3425 7.34266 65.6316L3.69384 63.4375H2.30002V50.3125H3.69384L7.34266 48.1184C8.52582 47.4075 9.88035 47.0312 11.26 47.0312H20.8552C20.8552 48.2377 19.8761 49.2188 18.6722 49.2188H14.3063H13.8544L12.1779 50.8988C11.1476 51.9312 9.77666 52.5 8.31953 52.5H6.66594V54.6875H8.31953C10.3606 54.6875 12.2783 53.8913 13.7224 52.4453L14.7593 51.4062H18.6722H27.3211C28.3165 52.1631 29.4451 52.7592 30.6785 53.1333V53.5938H14.3063V55.7812H30.6785V56.875C30.6785 57.26 30.7571 57.6253 30.8793 57.9688H27.404H14.3063V60.1562H27.404C28.0055 60.1562 28.4955 60.6473 28.4955 61.25ZM42.6848 27.3438C42.6848 27.9464 42.1947 28.4375 41.5933 28.4375C40.9919 28.4375 40.5018 27.9464 40.5018 27.3438V27.1688C40.5018 23.6469 37.6421 20.7812 34.1276 20.7812H33.7783C30.2637 20.7812 27.404 23.6469 27.404 27.1688C27.404 30.0059 29.3054 32.5325 32.0265 33.3112L36.4786 34.5855C40.1329 35.6322 42.6848 39.0217 42.6848 42.8312C42.6848 46.853 39.8349 50.3792 35.9089 51.217L35.0444 51.4008V56.875C35.0444 57.4777 34.5543 57.9688 33.9529 57.9688C33.3515 57.9688 32.8614 57.4777 32.8614 56.875V51.4008L31.997 51.217C28.0709 50.3792 25.2211 46.853 25.2211 42.8312V42.6562C25.2211 42.0536 25.7112 41.5625 26.3126 41.5625C26.914 41.5625 27.404 42.0536 27.404 42.6562V42.8312C27.404 46.3531 30.2637 49.2188 33.7783 49.2188H34.1265C37.641 49.2188 40.5007 46.3531 40.5007 42.8312C40.5007 39.9941 38.5993 37.4675 35.8783 36.6887L31.4261 35.4145C27.773 34.3678 25.2211 30.9783 25.2211 27.1688C25.2211 23.147 28.0709 19.6208 31.997 18.783L32.8614 18.5992V13.125C32.8614 12.5223 33.3515 12.0312 33.9529 12.0312C34.5543 12.0312 35.0444 12.5223 35.0444 13.125V18.5992L35.9089 18.783C39.8349 19.6208 42.6848 23.147 42.6848 27.1688V27.3438ZM65.6058 19.6875H64.212L60.5632 21.8816C59.38 22.5925 58.0255 22.9688 56.6459 22.9688H44.0054C43.6725 22.1911 43.2501 21.4572 42.7513 20.7812H53.5996V18.5938H40.5848C39.5893 17.8369 38.4607 17.2408 37.2274 16.8667V16.4062H53.5996V14.2188H37.2274V13.125C37.2274 12.74 37.1488 12.3747 37.0265 12.0312H40.5018H53.5996V9.84375H40.5018C39.9004 9.84375 39.4103 9.35266 39.4103 8.75C39.4103 8.14734 39.9004 7.65625 40.5018 7.65625H49.2336H53.1477L54.1846 8.69531C55.6275 10.1412 57.5463 10.9375 59.5874 10.9375H61.2399V8.75H59.5863C58.1292 8.75 56.7583 8.18125 55.7268 7.14875L54.0514 5.46875H53.5996H49.2336C48.0297 5.46875 47.0507 4.48766 47.0507 3.28125H56.6459C58.0255 3.28125 59.38 3.6575 60.5632 4.36844L64.212 6.5625H65.6058V19.6875Z" fill="#FFAA17"/>
<path d="M47.0507 41.5625H57.9655V43.75H47.0507V41.5625Z" fill="#FFAA17"/>
<path d="M9.94043 26.25H20.8552V28.4375H9.94043V26.25Z" fill="#FFAA17"/>
<path d="M10.9427 33.4531L21.028 29.2641L21.8641 31.2853L11.7788 35.4744L10.9427 33.4531Z" fill="#FFAA17"/>
<path d="M10.942 21.2412L11.7781 19.22L21.8634 23.409L21.0273 25.4303L10.942 21.2412Z" fill="#FFAA17"/>
<path d="M46.0669 38.7139L56.1522 34.5248L56.9882 36.5461L46.903 40.7351L46.0669 38.7139Z" fill="#FFAA17"/>
<path d="M46.072 46.6016L46.9081 44.5803L56.9934 48.7694L56.1573 50.7906L46.072 46.6016Z" fill="#FFAA17"/>
</g>
<defs>
<clipPath id="clip0_8_144">
<rect width="69.8547" height="70" fill="white" transform="translate(0.0235596)"/>
</clipPath>
</defs>
</svg>
