<svg width="71" height="70" viewBox="0 0 71 70" fill="none" xmlns="http://www.w3.org/2000/svg">
<path d="M31.1935 21.1574C31.7588 21.1574 32.2168 20.6984 32.2168 20.132V18.7861C32.2168 18.2197 31.7588 17.7607 31.1935 17.7607C30.6283 17.7607 30.1703 18.2197 30.1703 18.7861V20.132C30.1703 20.6984 30.6284 21.1574 31.1935 21.1574Z" fill="#FFAA17"/>
<path d="M40.0098 21.1574C40.5751 21.1574 41.0331 20.6984 41.0331 20.132V18.7861C41.0331 18.2197 40.5751 17.7607 40.0098 17.7607C39.4446 17.7607 38.9866 18.2197 38.9866 18.7861V20.132C38.9866 20.6984 39.4447 21.1574 40.0098 21.1574Z" fill="#FFAA17"/>
<path d="M35.6117 29.304C37.591 29.304 39.2012 27.6904 39.2012 25.707C39.2012 25.1406 38.7432 24.6816 38.1779 24.6816C37.6127 24.6816 37.1546 25.1406 37.1546 25.707C37.1546 26.5595 36.4625 27.2532 35.6117 27.2532C34.7609 27.2532 34.0687 26.5596 34.0687 25.707C34.0687 25.1406 33.6107 24.6816 33.0455 24.6816C32.4802 24.6816 32.0222 25.1406 32.0222 25.707C32.0222 27.6904 33.6324 29.304 35.6117 29.304Z" fill="#FFAA17"/>
<path d="M69.0283 58.6745C68.8205 58.0335 68.2777 57.575 67.6121 57.478L64.8839 57.0809L63.6639 54.6035C63.3661 53.9991 62.7633 53.6236 62.0907 53.6236C61.418 53.6236 60.8153 53.9991 60.5176 54.6035L59.2976 57.0809L58.5727 57.1864V47.5496C58.5727 44.7002 56.762 42.1759 54.0674 41.2406C52.6323 40.7424 51.6772 42.5692 53.413 43.1836C55.2688 43.8405 56.5261 45.577 56.5261 47.5497V57.4861C56.3729 57.5122 56.2265 57.5569 56.0897 57.6193C55.2325 57.2282 53.7703 57.176 52.882 57.081L51.662 54.6036C51.531 54.3379 51.3409 54.1164 51.112 53.9516V49.8641C51.112 49.2977 50.654 48.8387 50.0887 48.8387C49.5235 48.8387 49.0654 49.2977 49.0654 49.8641V53.9516C48.8365 54.1164 48.6466 54.3379 48.5156 54.6036L47.2956 57.081C46.3726 57.2032 45.2176 57.2611 44.3075 57.5367C43.3709 56.8163 40.8493 56.6749 39.7926 56.6108L38.7908 49.1492L40.222 46.5987L43.5546 48.6391C44.1761 49.0199 45.1113 48.5971 45.1113 47.7641V40.3386L49.1195 41.7128C49.6405 41.8807 50.0737 41.6679 50.4188 41.0746C50.6018 40.5388 50.3166 39.9558 49.7819 39.7726L42.622 37.3179V33.3029C45.575 31.1184 46.9395 27.3369 46.902 23.7733H47.9333C50.0696 23.7733 51.8077 22.0316 51.8077 19.8909V17.75C51.8077 16.1725 50.8634 14.8127 49.512 14.2058V9.50199C49.512 5.21598 46.6313 1.44362 42.5066 0.327853C41.9613 0.180333 41.3994 0.503811 41.2521 1.05069C41.1049 1.59743 41.4278 2.16016 41.9734 2.30782C45.2071 3.18228 47.4655 6.14061 47.4655 9.50185V12.6858C45.1211 10.1932 41.292 8.89058 38.3239 11.4307C36.6706 12.6535 35.0144 12.6614 33.3555 11.4546C30.4222 8.97918 26.4801 10.3207 24.0845 12.6948V9.50199C24.0845 5.3933 27.4201 2.05079 31.5203 2.05079H37.7799C38.3452 2.05079 38.8032 1.59182 38.8032 1.02539C38.8032 0.458967 38.3452 0 37.7799 0H31.5203C26.2918 0 22.038 4.26263 22.038 9.50199V14.0765C20.5147 14.5997 19.4163 16.048 19.4163 17.7494V19.8903C19.4163 22.0311 21.1543 23.7728 23.2906 23.7728H24.3219C24.2844 27.3363 25.6489 31.1179 28.6019 33.3024V37.3173L17.1483 41.2432C14.4585 42.1659 12.6512 44.7001 12.6512 47.5495V49.7534C12.6512 50.3198 13.1093 50.7788 13.6745 50.7788C14.2398 50.7788 14.6978 50.3198 14.6978 49.7534V47.5495C14.6978 45.5767 15.9489 43.8222 17.8108 43.1835L26.1128 40.3379V47.7636C26.1128 48.5974 27.0478 49.0189 27.6695 48.6386L31.0021 46.5982L32.4333 49.1487L31.431 56.6141C30.3748 56.6768 27.8529 56.816 26.9165 57.5363C26.0065 57.2606 24.8514 57.2029 23.9284 57.0806L22.7084 54.6032C22.5775 54.3374 22.3874 54.1161 22.1586 53.9512V49.8637C22.1586 49.2973 21.7006 48.8383 21.1353 48.8383C20.5701 48.8383 20.1121 49.2973 20.1121 49.8637V53.9512C19.8831 54.116 19.6931 54.3374 19.5621 54.6032L18.3421 57.0806C17.4538 57.1755 15.9915 57.2277 15.1344 57.6188C14.9977 57.5565 14.8511 57.5118 14.6979 57.4857V54.2215C14.6979 53.6551 14.2399 53.1961 13.6746 53.1961C13.1094 53.1961 12.6514 53.6551 12.6514 54.2215V57.1864L11.9265 57.0809L10.7065 54.6035C10.4087 53.9991 9.80588 53.6236 9.13339 53.6236C8.46063 53.6236 7.85786 53.9991 7.56016 54.6035L6.34015 57.0809L3.61185 57.478C2.94632 57.575 2.40372 58.0335 2.19579 58.6745C1.988 59.3155 2.158 60.0061 2.63961 60.4767L4.61383 62.405L4.14791 65.1277C4.03412 65.7919 4.30153 66.4509 4.84564 66.8471C5.38988 67.2433 6.09784 67.2946 6.69338 66.981L9.13339 65.6954L11.5737 66.981C12.2024 67.2916 12.8182 67.247 13.4213 66.8471C13.9654 66.4509 14.2328 65.7919 14.119 65.1277L13.653 62.4051L15.1345 60.9579L16.6161 62.4051L16.15 65.1277C16.0362 65.7919 16.3036 66.4509 16.8477 66.8471C17.3918 67.2433 18.0999 67.2946 18.6955 66.981L21.1355 65.6954L23.5758 66.981C24.2045 67.2916 24.8203 67.247 25.4234 66.8471C25.9675 66.4509 26.2349 65.7919 26.1211 65.1277L25.6552 62.405L27.0953 60.9983L29.6817 63.5295L28.9867 67.5894C28.8532 68.3679 29.1666 69.14 29.8044 69.6042C30.511 70.073 31.2328 70.1252 31.9695 69.761L35.6165 67.8441L39.2549 69.761C39.9524 70.1284 40.7819 70.0686 41.42 69.6042C42.0579 69.1399 42.3712 68.3679 42.2378 67.5894L41.5457 63.5212L44.1288 60.9979L45.5693 62.4048L45.1034 65.1276C44.9896 65.7918 45.257 66.4508 45.8011 66.847C46.3452 67.2432 47.0533 67.2945 47.6488 66.9808L50.089 65.6953L52.5291 66.9808C53.1578 67.2915 53.7737 67.2469 54.3767 66.847C54.9208 66.4508 55.1883 65.7918 55.0745 65.1276L54.6084 62.405L56.09 60.9578L57.5715 62.405L57.1055 65.1276C56.9917 65.7918 57.2591 66.4508 57.8032 66.847C58.3473 67.2432 59.0554 67.2945 59.6509 66.9808L62.0911 65.6953L64.5312 66.9808C65.1599 67.2915 65.7758 67.2469 66.3788 66.847C66.9229 66.4508 67.1903 65.7918 67.0766 65.1276L66.6106 62.4048L68.5849 60.4766C69.0661 60.0061 69.2361 59.3157 69.0283 58.6745ZM37.1324 47.9198H34.0914L32.7495 45.5288L35.6118 43.7767L38.4741 45.5288L37.1324 47.9198ZM34.3877 49.9709H36.8358L37.1619 52.3992C36.1285 51.4569 35.095 51.4569 34.0616 52.3992L34.3877 49.9709ZM40.5713 37.5489L35.6118 41.2909L30.6524 37.5489V34.4874C33.393 35.6818 37.8305 35.6818 40.5711 34.4874V37.5489H40.5713ZM43.0645 45.9356L37.4301 42.4861L41.7818 39.2025L43.0643 39.6388V45.9356H43.0645ZM49.761 19.8903C49.761 20.9004 48.941 21.722 47.9332 21.722H46.9019V15.9177H47.9332C48.9412 15.9177 49.761 16.7394 49.761 17.7493V19.8903ZM23.2905 21.7221C22.2825 21.7221 21.4627 20.9004 21.4627 19.8905V17.7496C21.4627 16.7395 22.2826 15.918 23.2905 15.918H24.3218V21.7222H23.2905V21.7221ZM26.3683 24.8296V13.4524C27.9282 12.0972 30.2691 11.5316 32.0391 13.0252C34.5812 14.8764 37.1192 14.8647 39.653 12.9901C41.239 11.6334 43.3529 12.0484 44.8553 13.1625V24.8297C44.8553 36.086 26.3683 36.086 26.3683 24.8296ZM28.1592 39.6389L29.4417 39.2026L33.7934 42.4862L28.159 45.9358V39.6389H28.1592ZM12.1142 61.0437C11.7007 61.4475 11.5119 62.0293 11.6096 62.5998L12.0014 64.8897L9.94914 63.8084C9.43805 63.5395 8.82791 63.5393 8.31655 63.8085L6.26443 64.8897L6.65627 62.6002C6.75423 62.0297 6.56554 61.4477 6.15187 61.0437L4.49172 59.4222L6.78616 59.0882C7.35741 59.0049 7.85104 58.6456 8.10699 58.1265L9.13312 56.0432L10.1591 58.1265C10.4147 58.6453 10.9084 59.0049 11.4802 59.0882L13.7742 59.4222L12.1142 61.0437ZM24.1163 61.0437C23.7025 61.4477 23.5138 62.0297 23.6116 62.5998L24.0036 64.8897L21.9512 63.8084C21.407 63.5393 20.8629 63.5395 20.3186 63.8085L18.2667 64.8897L18.6586 62.5997C18.7562 62.0293 18.5674 61.4475 18.154 61.0438L16.4939 59.4222L18.7882 59.0882C19.3595 59.0049 19.8531 58.6456 20.1091 58.1265L21.1352 56.0432L22.1613 58.1269C22.417 58.6456 22.9106 59.0049 23.4822 59.0882L25.7763 59.4222L24.1163 61.0437ZM43.0602 59.1776L40.1168 62.0528C39.6322 62.5261 39.4111 63.2077 39.5256 63.8761L40.2233 67.9387C40.221 67.9425 40.2132 67.948 40.207 67.9459L36.5686 66.0291C35.9693 65.7132 35.2542 65.7133 34.6553 66.029L31.0152 67.9495C31.0108 67.9484 31.0026 67.9425 31.0032 67.936L31.6983 63.8761C31.8126 63.2077 31.5916 62.5261 31.107 62.0528L28.1594 59.177C28.159 59.1725 28.1622 59.163 28.1685 59.1616L32.2363 58.5693C32.8828 58.4753 33.4851 58.0494 33.7843 57.4423L35.6027 53.7446C35.6068 53.7429 35.6167 53.7429 35.6154 53.7405C35.6154 53.7405 35.6173 53.7429 35.6201 53.7487L37.4392 57.4426C37.7386 58.0502 38.3405 58.4754 38.9874 58.5695L43.0586 59.1598C43.0616 59.163 43.0646 59.1725 43.0602 59.1776ZM53.0698 61.0437C52.6563 61.4475 52.4675 62.0293 52.5652 62.5998L52.957 64.8897L50.9047 63.8084C50.3937 63.5395 49.7835 63.5393 49.2721 63.8085L47.22 64.8897L47.6119 62.6002C47.7098 62.0297 47.5211 61.4477 47.1075 61.0437L45.4473 59.4222L47.7418 59.0882C48.313 59.0049 48.8066 58.6456 49.0626 58.1265L50.0887 56.0432L51.1148 58.1269C51.3705 58.6456 51.8641 59.0049 52.4357 59.0882L54.7297 59.4222L53.0698 61.0437ZM65.0719 61.0437C64.6581 61.4477 64.4694 62.0297 64.5672 62.5998L64.9592 64.8897L62.9068 63.8084C62.3626 63.5393 61.8185 63.5395 61.2742 63.8085L59.2222 64.8897L59.6142 62.5997C59.7118 62.0293 59.523 61.4475 59.1096 61.0438L57.4495 59.4222L59.7438 59.0882C60.3152 59.0049 60.8091 58.6453 61.0647 58.1265L62.0908 56.0432L63.1169 58.1269C63.3726 58.6456 63.8662 59.0049 64.4378 59.0882L66.7319 59.4222L65.0719 61.0437Z" fill="#FFAA17"/>
</svg>
