<svg width="71" height="70" viewBox="0 0 71 70" fill="none" xmlns="http://www.w3.org/2000/svg">
<g clip-path="url(#clip0_8_171)">
<path d="M35.9731 48.5297H35.915C35.3453 48.5297 34.8838 48.0667 34.8838 47.4963C34.8838 46.9254 35.3453 46.4629 35.915 46.4629H35.9731C36.5423 46.4629 37.0039 46.9254 37.0039 47.4963C37.0039 48.0672 36.5423 48.5297 35.9731 48.5297Z" fill="#FFAA17"/>
<path d="M35.9151 59.1234H35.8533C35.2836 59.1234 34.822 58.6609 34.822 58.09C34.822 57.5197 35.2836 57.0566 35.8533 57.0566H35.9151C36.4843 57.0566 36.9458 57.5197 36.9458 58.09C36.9458 58.6609 36.4843 59.1234 35.9151 59.1234Z" fill="#FFAA17"/>
<path d="M19.1432 52.9055V67.7726C15.1274 67.7646 11.1218 67.7582 7.68745 67.7582C7.40019 67.7582 7.13371 67.7603 6.88696 67.7624C6.32043 67.7678 5.69262 67.7731 5.37178 67.7277C5.40909 67.1792 5.81147 65.8452 6.03957 65.0884L11.603 46.7018C12.5735 43.718 14.8066 43.0788 17.8961 42.1944C18.3011 42.0785 18.7195 41.9578 19.1432 41.8296V52.9055ZM53.5568 23.6989C53.5568 24.2788 53.219 24.9598 52.653 25.5195C52.4003 25.7694 52.1189 25.9793 51.8296 26.1406C51.8455 25.9061 51.8546 25.6733 51.8546 25.4415L51.894 21.7255H53.0788C53.3378 21.7255 53.5563 21.9461 53.5563 22.2072V23.6989H53.5568ZM32.7356 1.92955H38.8394C39.6053 1.92955 40.2374 2.51114 40.321 3.25616C40.3216 3.26256 40.3226 3.26951 40.3232 3.27645C40.328 3.32452 40.3306 3.37311 40.3306 3.42278V7.79352C40.3306 8.6165 39.6618 9.28621 38.8394 9.28621H32.7356C31.9132 9.28621 31.2438 8.6165 31.2438 7.79352V3.42278C31.2438 3.37792 31.247 3.33413 31.2508 3.29034C31.2534 3.26256 31.2582 3.23159 31.262 3.20168C31.3696 2.48284 31.9884 1.92955 32.7356 1.92955ZM29.1819 4.60359V7.79352C29.1819 9.75618 30.7759 11.353 32.735 11.353H38.8394C40.7986 11.353 42.3926 9.75618 42.3926 7.79352V4.62762C46.2192 6.65651 48.9015 10.3127 49.6866 14.5985H21.8458C22.6356 10.2918 25.334 6.6266 29.1819 4.60359ZM19.1576 25.5195C18.5916 24.9592 18.2537 24.2788 18.2537 23.6989V22.2072C18.2537 21.9461 18.4744 21.725 18.7355 21.725H19.9165L19.956 25.4308C19.956 25.6658 19.965 25.9029 19.9815 26.1416C19.6921 25.9798 19.4107 25.7699 19.1576 25.5195ZM22.2727 27.5158C22.2706 27.3807 22.2418 27.2519 22.1927 27.1345C22.0803 26.5534 22.0179 25.9793 22.0179 25.4196L21.9785 21.726L33.7716 21.733H33.7721C34.3413 21.733 34.8029 21.2705 34.8029 20.7001C34.8034 20.1297 34.3419 19.6667 33.7727 19.6667L20.9403 19.6587C20.9392 19.6587 20.9382 19.6587 20.9371 19.6587H20.6579C20.2795 19.6587 19.9714 19.3505 19.9714 18.9714V17.3521C19.9714 16.9793 20.2859 16.6648 20.6579 16.6648H50.979C51.351 16.6648 51.6654 16.9799 51.6654 17.3521V18.9714C51.6654 19.3505 51.3574 19.6587 50.979 19.6587H38.4989C37.9297 19.6587 37.4682 20.1212 37.4682 20.6921C37.4682 21.2625 37.9297 21.725 38.4989 21.725H49.8321L49.7926 25.4308C49.7926 25.9836 49.7319 26.5513 49.6215 27.1259C49.5693 27.2477 49.5395 27.3812 49.5373 27.5216V27.5238C48.4666 32.1332 44.1343 37.1069 39.2839 38.9185C38.5133 39.2063 37.8119 39.405 37.1377 39.515C37.0898 39.5182 37.0418 39.5251 36.9944 39.5353C36.2621 39.6416 35.557 39.6416 34.8253 39.5364C34.7768 39.5257 34.7277 39.5187 34.6792 39.515C34.0093 39.4061 33.3133 39.2106 32.5485 38.9259C27.6869 37.116 23.345 32.1386 22.2727 27.5158ZM30.9534 67.7934C27.9955 67.7897 24.8522 67.7833 21.7744 67.7774C21.5852 67.7768 21.3955 67.7768 21.2052 67.7763V62.11H30.9534V67.7934ZM30.9534 60.0437H21.2052V53.9389H30.9534V60.0437ZM30.9534 51.8721H21.2052V41.2026L22.367 40.8491L27.1391 47.2257C27.8905 48.2089 28.8669 48.7339 29.9248 48.7339C30.0687 48.7339 30.2142 48.7243 30.3602 48.7045C30.5627 48.6773 30.7604 48.6298 30.9539 48.5684V51.8721H30.9534ZM31.32 45.9034C31.2289 46.0716 30.6832 46.6046 30.0303 46.6623C29.8624 46.6778 29.3519 46.7227 28.7827 45.9776L24.4658 40.2098L28.3089 39.0397C28.3409 39.0611 28.3744 39.0813 28.4075 39.1022C29.4963 39.8232 30.6464 40.4224 31.8306 40.863C32.2985 41.0371 32.7489 41.1802 33.1886 41.2988L31.32 45.9034ZM38.7989 52.9055V67.7955C37.805 67.7966 36.8387 67.7971 35.9151 67.7971C34.9867 67.7971 34.0152 67.7966 33.0159 67.7955V47.0751C33.1028 46.9459 33.1752 46.8172 33.2264 46.6922L35.2697 41.6571C35.4824 41.6715 35.6945 41.6811 35.9061 41.6811C36.1187 41.6811 36.3319 41.671 36.5451 41.6566L38.589 46.6944C38.6401 46.8183 38.7121 46.947 38.7989 47.0757V52.9055ZM40.4942 45.9034L38.6257 41.2982C39.0723 41.1781 39.5291 41.0323 40.0045 40.855C41.2164 40.4021 42.3931 39.7831 43.5049 39.037L47.348 40.2061L43.0338 45.9702C42.4603 46.7221 41.9513 46.6767 41.784 46.6628C41.1317 46.6052 40.5854 46.0722 40.4942 45.9034ZM50.6054 67.7763C50.422 67.7768 50.2382 67.7768 50.0554 67.7774C46.9723 67.7833 43.8236 67.7897 40.8609 67.7934V62.11H50.6054V67.7763ZM50.6054 60.0437H40.8609V53.9389H50.6054V60.0437ZM50.6054 51.8721H40.8609V48.5684C41.0544 48.6298 41.2526 48.6778 41.4552 48.7045C41.6012 48.7243 41.7456 48.7339 41.889 48.7339C42.9463 48.7339 43.9227 48.2079 44.6779 47.2177L49.4478 40.8448L50.6054 41.1973V51.8721ZM67.7589 64.4855L64.5985 54.1674C64.4317 53.6222 63.855 53.3156 63.3104 53.4833C62.7657 53.6505 62.4598 54.2283 62.6271 54.7741L65.7875 65.0921C66.0188 65.8473 66.4271 67.1782 66.4638 67.7256C66.1409 67.7726 65.5035 67.7672 64.9289 67.7624C64.6859 67.7603 64.4242 67.7582 64.1428 67.7582C60.7026 67.7582 56.6901 67.7651 52.6674 67.7726V41.8237C53.0985 41.9546 53.5243 42.0774 53.9358 42.1954C57.0242 43.0798 59.2562 43.7191 60.223 46.7013L61.4189 50.6592C61.5841 51.2055 62.1597 51.5137 62.7049 51.3487C63.2496 51.1831 63.5577 50.6063 63.3924 50.0605L62.1933 46.0925C62.1917 46.0866 62.1896 46.0802 62.1874 46.0743C60.8844 42.0368 57.7847 41.1487 54.5028 40.2082C54.0706 40.0843 53.624 39.9567 53.1774 39.8205L45.5146 37.4888C48.3531 35.0043 50.5377 31.7209 51.4235 28.4781C52.371 28.28 53.3277 27.7561 54.1021 26.9897C55.0662 26.0359 55.6188 24.8364 55.6188 23.6989V22.2072C55.6188 20.989 54.7618 19.969 53.6219 19.7185C53.689 19.4809 53.7274 19.2309 53.7274 18.9714V17.3521C53.7274 16.1184 52.913 15.0717 51.7949 14.7224C51.3835 12.0238 50.3021 9.46886 48.6383 7.2915C46.9467 5.07836 44.7253 3.34054 42.1906 2.24091C41.703 0.857699 40.3855 -0.136719 38.8394 -0.136719H32.7356C31.198 -0.136719 29.8859 0.846483 29.3918 2.21795C26.8449 3.31223 24.6123 5.05059 22.9106 7.27067C21.2297 9.46405 20.1398 12.0404 19.7305 14.763C18.6705 15.1454 17.9094 16.1601 17.9094 17.3521V18.9714C17.9094 19.2464 17.951 19.5113 18.0256 19.7612C16.9677 20.0705 16.1917 21.0489 16.1917 22.2072V23.6989C16.1917 24.8359 16.7444 26.0359 17.708 26.9897C18.4834 27.7566 19.4411 28.2805 20.3887 28.4787C21.2766 31.7247 23.4617 35.0081 26.3013 37.4915L18.6518 39.8205C18.2068 39.9561 17.7613 40.0838 17.3301 40.2077C14.0471 41.1471 10.9464 42.0352 9.63858 46.0732C9.63645 46.0797 9.63485 46.0861 9.63272 46.0925L4.06552 64.4897C3.33005 66.9288 3.00602 68.1411 3.67114 69.0298C4.2851 69.8511 5.32755 69.8426 6.90455 69.8287C7.14597 69.8266 7.40659 69.8244 7.68692 69.8244C11.3536 69.8244 15.6716 69.8319 19.9592 69.8405C20.0284 69.8549 20.1004 69.8634 20.1745 69.8634H31.9846C32.0001 69.8634 32.015 69.8618 32.0305 69.8607C33.3794 69.8624 34.6835 69.8634 35.9151 69.8634C37.142 69.8634 38.4408 69.8624 39.7849 69.8607C39.7998 69.8613 39.8147 69.8634 39.8302 69.8634H51.6361C51.7102 69.8634 51.7821 69.8554 51.8514 69.8405C56.1454 69.8319 60.4708 69.8244 64.1428 69.8244C64.4184 69.8244 64.6742 69.8266 64.9119 69.8287C66.5006 69.8421 67.5505 69.8506 68.1661 69.0228C68.8333 68.1261 68.5045 66.9175 67.7589 64.4855Z" fill="#FFAA17"/>
</g>
<defs>
<clipPath id="clip0_8_171">
<rect width="69.8547" height="70" fill="white" transform="translate(0.854004)"/>
</clipPath>
</defs>
</svg>
