<svg width="40" height="60" viewBox="0 0 40 60" fill="none" xmlns="http://www.w3.org/2000/svg">
<path d="M35.7733 24.4799H30.864V18.0862C30.864 17.6002 30.4701 17.2062 29.984 17.2062C29.4979 17.2062 29.104 17.6001 29.104 18.0862V24.4799H26.7318V10.6423C26.7318 6.93038 23.7117 3.91044 19.9999 3.91044C16.288 3.91044 13.2681 6.9305 13.2681 10.6423V24.4799H10.8958V10.8638C10.8958 5.8437 14.98 1.75969 19.9999 1.75969C25.02 1.75969 29.104 5.8437 29.104 10.8638V12.2204C29.104 12.7063 29.4979 13.1003 29.984 13.1003C30.4701 13.1003 30.864 12.7065 30.864 12.2204V10.8638C30.864 4.8735 25.9903 0 20 0C14.0098 0 9.13626 4.8735 9.13626 10.8638V24.4799H4.22678C2.11834 24.4799 0.40294 26.1953 0.40294 28.3037V47.5919C0.40294 48.0779 0.796926 48.4719 1.2829 48.4719C1.76888 48.4719 2.16287 48.078 2.16287 47.5919V28.3038C2.16287 27.1656 3.08889 26.2397 4.22702 26.2397H10.0162H14.1482H25.8522H29.9841H35.7733C36.9116 26.2397 37.8376 27.1657 37.8376 28.3038V56.1764C37.8376 57.3146 36.9114 58.2405 35.7733 58.2405H28.2268V54.4745C28.2268 54.2791 28.1618 54.0893 28.042 53.9349L23.8627 48.5499H25.7718C26.0384 48.5499 26.2907 48.4291 26.4577 48.2211C26.6247 48.0133 26.6884 47.7409 26.631 47.4803L25.6558 43.0611H25.7717C26.2142 43.0611 26.5878 42.7325 26.6444 42.2937L27.9626 32.0664C28.0159 31.6531 27.772 31.259 27.3782 31.1225C26.9845 30.986 26.549 31.1446 26.3349 31.502L22.5838 37.7699L17.6686 39.3227C17.3848 39.4123 17.1656 39.6393 17.0859 39.9259C17.0063 40.2127 17.0769 40.5202 17.2737 40.7436L19.8958 43.7179L16.275 48.0435C15.973 48.4044 16.0082 48.9389 16.3549 49.2568L20.8297 53.3611L16.4517 58.2401H4.22667C3.08842 58.2401 2.16252 57.3141 2.16252 56.1759V53.7702C2.16252 53.2842 1.76853 52.8902 1.28255 52.8902C0.796574 52.8902 0.402588 53.2841 0.402588 53.7702V56.1759C0.402588 58.2844 2.11799 59.9998 4.22643 59.9998H35.773C37.8815 59.9998 39.5969 58.2844 39.5969 56.1759V28.3038C39.5973 26.1954 37.8819 24.4799 35.7733 24.4799ZM24.9722 24.4799H15.0279V10.6423C15.0279 7.90058 17.2583 5.67014 20 5.67014C22.7418 5.67014 24.9722 7.90058 24.9722 10.6423V24.4799ZM26.4674 58.1234H18.9218L22.7209 53.889C23.043 53.5302 23.0161 52.9788 22.6608 52.653L18.1643 48.5288L21.7306 44.2683C22.0097 43.9349 22.0034 43.4478 21.7159 43.1215L19.4878 40.5939L23.4328 39.3476C23.6379 39.2829 23.8123 39.145 23.9228 38.9604L25.6783 36.0272L24.9984 41.3016H24.561C24.2944 41.3016 24.0421 41.4224 23.8751 41.6304C23.7081 41.8383 23.6444 42.1107 23.7018 42.3712L24.677 46.7905H22.0664C21.7304 46.7905 21.4239 46.9817 21.2762 47.2834C21.1285 47.585 21.1654 47.9445 21.3713 48.2098L26.4673 54.7761V58.1234H26.4674Z" fill="#FFAA17"/>
</svg>
