<svg width="53" height="60" viewBox="0 0 53 60" fill="none" xmlns="http://www.w3.org/2000/svg">
<path d="M52.9985 20.4726V20.4694C52.9428 17.5406 50.2909 15.1735 47.038 15.1735H31.1062V14.0625C31.1062 6.30798 24.1296 0 15.5531 0C6.97662 0 0 6.30798 0 14.0625V45.9375C0 53.692 6.97662 60 15.5531 60C24.1296 60 31.1062 53.692 31.1062 45.9375V25.9547H47.038C50.2337 25.9547 52.8496 23.6705 52.9934 20.8113C52.9934 20.8113 52.9934 20.8113 52.9934 20.8099C52.997 20.728 53 20.6474 53 20.5641C53 20.5334 53 20.5032 52.9985 20.4726ZM28.514 45.9375C28.514 52.3993 22.6998 57.6562 15.5531 57.6562C8.40637 57.6562 2.59218 52.3993 2.59218 45.9375V14.0625C2.59218 7.60071 8.40637 2.34375 15.5531 2.34375C22.6998 2.34375 28.514 7.60071 28.514 14.0625V15.1735H24.6257V14.0204C24.6257 9.49814 20.5562 5.81726 15.5531 5.81726C10.55 5.81726 6.48046 9.49814 6.48046 14.0204V27.1454C6.48046 31.6685 10.55 35.3485 15.5531 35.3485C20.5562 35.3485 24.6257 31.6685 24.6257 27.1454V25.9547H28.514V45.9375ZM14.1173 25.9547H22.0335V27.1454C22.0335 30.3763 19.1265 33.0048 15.5531 33.0048C11.9797 33.0048 9.07264 30.3763 9.07264 27.1454V14.0204C9.07264 10.7895 11.9797 8.16101 15.5531 8.16101C19.1265 8.16101 22.0335 10.7895 22.0335 14.0204V15.1735H14.1173C13.4014 15.1735 12.8212 15.6985 12.8212 16.3454V24.7829C12.8212 25.4311 13.4014 25.9547 14.1173 25.9547ZM41.3453 21.7969H50.1172C49.5947 22.8644 48.4115 23.611 47.038 23.611H15.4134V17.5172H47.038C48.4622 17.5172 49.6828 18.3211 50.1744 19.4531H41.3453C40.6299 19.4531 40.0492 19.9782 40.0492 20.625C40.0492 21.2718 40.6299 21.7969 41.3453 21.7969Z" fill="#FFAA17"/>
<path d="M15.5531 37.7344C10.55 37.7344 6.48047 41.4139 6.48047 45.9375C6.48047 50.441 10.514 54.1077 15.4868 54.1393C15.5091 54.1406 15.5308 54.1406 15.5531 54.1406C15.5754 54.1406 15.5972 54.1406 15.6194 54.1393C20.5922 54.1077 24.6257 50.441 24.6257 45.9375C24.6257 41.4139 20.5562 37.7344 15.5531 37.7344ZM15.5531 47.1094C14.8387 47.1094 14.257 46.5834 14.257 45.9375C14.257 45.2916 14.8387 44.7656 15.5531 44.7656C16.2675 44.7656 16.8492 45.2916 16.8492 45.9375C16.8492 46.5834 16.2675 47.1094 15.5531 47.1094ZM16.8492 51.6783V49.2517C18.3579 48.7688 19.4414 47.4655 19.4414 45.9375C19.4414 43.9993 17.6967 42.4219 15.5531 42.4219C13.4095 42.4219 11.6648 43.9993 11.6648 45.9375C11.6648 47.4655 12.7483 48.7688 14.257 49.2517V51.6783C11.3018 51.1349 9.07265 48.7665 9.07265 45.9375C9.07265 42.7066 11.9797 40.0781 15.5531 40.0781C19.1265 40.0781 22.0336 42.7066 22.0336 45.9375C22.0336 48.7665 19.8044 51.1349 16.8492 51.6783Z" fill="#FFAA17"/>
<path d="M36.1634 21.7969C35.4475 21.7969 34.8668 21.2723 34.8668 20.625C34.8668 19.9777 35.4465 19.4531 36.1624 19.4531H36.1634C36.8793 19.4531 37.4595 19.9777 37.4595 20.625C37.4595 21.2723 36.8793 21.7969 36.1634 21.7969Z" fill="#FFAA17"/>
</svg>
