<svg width="60" height="60" viewBox="0 0 60 60" fill="none" xmlns="http://www.w3.org/2000/svg">
<path d="M58.125 29.0626C58.3736 29.0626 58.6121 28.9638 58.7879 28.788C58.9637 28.6122 59.0625 28.3737 59.0625 28.1251V24.3751C59.0623 24.2207 59.0241 24.0688 58.9513 23.9327C58.8786 23.7966 58.7735 23.6805 58.6453 23.5946L30.5203 4.84459C30.3662 4.74199 30.1852 4.68726 30 4.68726C29.8148 4.68726 29.6338 4.74199 29.4797 4.84459L1.35469 23.5946C1.2265 23.6805 1.12141 23.7966 1.04866 23.9327C0.975913 24.0688 0.937739 24.2207 0.9375 24.3751V28.1251C0.9375 28.3737 1.03627 28.6122 1.21209 28.788C1.3879 28.9638 1.62636 29.0626 1.875 29.0626H3.75V53.4376H1.875C1.62636 53.4376 1.3879 53.5363 1.21209 53.7121C1.03627 53.888 0.9375 54.1264 0.9375 54.3751C0.9375 54.6237 1.03627 54.8622 1.21209 55.038C1.3879 55.2138 1.62636 55.3126 1.875 55.3126H58.125C58.3736 55.3126 58.6121 55.2138 58.7879 55.038C58.9637 54.8622 59.0625 54.6237 59.0625 54.3751C59.0625 54.1264 58.9637 53.888 58.7879 53.7121C58.6121 53.5363 58.3736 53.4376 58.125 53.4376H56.25V29.0626H58.125ZM33.75 53.4376H11.25V52.5001H33.75V53.4376ZM33.75 50.6251H11.25V49.6876H33.75V50.6251ZM33.75 47.8126H11.25V46.8751H33.75V47.8126ZM33.75 45.0001H11.25V44.0626H33.75V45.0001ZM33.75 42.1876H11.25V41.2501H33.75V42.1876ZM33.75 39.3751H11.25V38.4376H33.75V39.3751ZM9.375 36.5626V34.6876H35.625V36.5626H9.375ZM49.6875 53.4376H42.1875V39.3751H49.6875V53.4376ZM54.375 53.4376H51.5625V38.4376C51.5625 38.1889 51.4637 37.9505 51.2879 37.7746C51.1121 37.5988 50.8736 37.5001 50.625 37.5001H41.25C41.0014 37.5001 40.7629 37.5988 40.5871 37.7746C40.4113 37.9505 40.3125 38.1889 40.3125 38.4376V53.4376H35.625V38.4376H36.5625C36.8111 38.4376 37.0496 38.3388 37.2254 38.163C37.4012 37.9872 37.5 37.7487 37.5 37.5001V33.7501C37.5 33.5014 37.4012 33.263 37.2254 33.0871C37.0496 32.9113 36.8111 32.8126 36.5625 32.8126H8.4375C8.18886 32.8126 7.9504 32.9113 7.77459 33.0871C7.59877 33.263 7.5 33.5014 7.5 33.7501V37.5001C7.5 37.7487 7.59877 37.9872 7.77459 38.163C7.9504 38.3388 8.18886 38.4376 8.4375 38.4376H9.375V53.4376H5.625V28.6114L30 11.4587L54.375 28.6114V53.4376ZM55.609 27.1876L30.5391 9.54615C30.3814 9.43464 30.1931 9.37475 30 9.37475C29.8069 9.37475 29.6186 9.43464 29.4609 9.54615L4.39102 27.1876H2.8125V24.8766L30 6.75123L57.1875 24.8766V27.1876H55.609Z" fill="#FFAA17"/>
<path d="M47.8125 44.0625C47.5639 44.0625 47.3254 44.1613 47.1496 44.3371C46.9738 44.5129 46.875 44.7514 46.875 45V46.875C46.875 47.1236 46.9738 47.3621 47.1496 47.5379C47.3254 47.7137 47.5639 47.8125 47.8125 47.8125C48.0611 47.8125 48.2996 47.7137 48.4754 47.5379C48.6512 47.3621 48.75 47.1236 48.75 46.875V45C48.75 44.7514 48.6512 44.5129 48.4754 44.3371C48.2996 44.1613 48.0611 44.0625 47.8125 44.0625Z" fill="#FFAA17"/>
<path d="M30 17.8125C28.8875 17.8125 27.7999 18.1424 26.8749 18.7605C25.9499 19.3786 25.2289 20.2571 24.8032 21.2849C24.3774 22.3127 24.266 23.4437 24.4831 24.5349C24.7001 25.626 25.2359 26.6283 26.0225 27.415C26.8092 28.2016 27.8115 28.7374 28.9026 28.9544C29.9938 29.1715 31.1248 29.0601 32.1526 28.6343C33.1804 28.2086 34.0589 27.4876 34.677 26.5626C35.2951 25.6376 35.625 24.55 35.625 23.4375C35.6233 21.9462 35.0302 20.5164 33.9756 19.4619C32.9211 18.4073 31.4913 17.8142 30 17.8125ZM30 27.1875C29.2583 27.1875 28.5333 26.9676 27.9166 26.5555C27.2999 26.1435 26.8193 25.5578 26.5355 24.8726C26.2516 24.1873 26.1774 23.4333 26.3221 22.7059C26.4668 21.9785 26.8239 21.3103 27.3484 20.7859C27.8728 20.2614 28.541 19.9042 29.2684 19.7596C29.9958 19.6149 30.7498 19.6891 31.4351 19.973C32.1203 20.2568 32.706 20.7374 33.118 21.3541C33.5301 21.9708 33.75 22.6958 33.75 23.4375C33.7489 24.4317 33.3534 25.3849 32.6504 26.0879C31.9474 26.7909 30.9942 27.1864 30 27.1875Z" fill="#FFAA17"/>
</svg>
