<svg width="60" height="60" viewBox="0 0 60 60" fill="none" xmlns="http://www.w3.org/2000/svg">
<g clip-path="url(#clip0_327_604)">
<path d="M54.8099 5.05509C48.0689 -1.68568 37.1008 -1.68568 30.3598 5.05509C27.5648 7.85009 25.8524 11.3993 25.4075 15.3192C25.0289 18.6555 25.6388 22.0555 27.1309 25.0357L0.134399 52.0323L7.83266 59.7306L10.9685 56.5947L14.3734 59.9996L21.68 52.6929L18.2752 49.2881L20.7805 46.7827L24.1854 50.1875L31.492 42.8809L28.0872 39.476L34.8291 32.734C37.8095 34.2259 41.2095 34.836 44.5457 34.4573C48.4655 34.0125 52.0149 32.3001 54.8098 29.5051C61.5508 22.7643 61.5508 11.796 54.8099 5.05509ZM52.3235 27.0188C47.8169 31.5255 40.8719 32.3624 35.4348 29.0539L34.2546 28.3358L23.1144 39.476L26.5193 42.8809L24.1854 45.2148L20.7805 41.8099L13.3023 49.2881L16.7071 52.6929L14.3734 55.0268L10.9685 51.622L7.83266 54.7578L5.10729 52.0323L31.5292 25.6104L30.8111 24.4302C27.5026 18.993 28.3396 12.0482 32.8462 7.54147C38.2161 2.17171 46.9535 2.17171 52.3235 7.54147C57.6934 12.9115 57.6934 21.6489 52.3235 27.0188Z" fill="#FFAA17"/>
<path d="M41.8525 9.86793C39.607 12.1135 39.607 15.7673 41.8525 18.013C42.9754 19.1356 44.4501 19.6971 45.925 19.6971C47.3998 19.6971 48.8747 19.1356 49.9974 18.0129H49.9975C52.2429 15.7673 52.2429 12.1135 49.9974 9.86793C47.7519 7.62241 44.098 7.62253 41.8525 9.86793ZM47.5112 15.5265C46.6364 16.4012 45.2134 16.401 44.3391 15.5265C43.4645 14.6519 43.4645 13.2288 44.339 12.3544C44.7763 11.9171 45.3506 11.6984 45.9251 11.6984C46.4994 11.6984 47.074 11.917 47.5112 12.3543C48.3855 13.2289 48.3855 14.6519 47.5112 15.5265Z" fill="#FFAA17"/>
</g>
<defs>
<clipPath id="clip0_327_604">
<rect width="60" height="60" fill="white"/>
</clipPath>
</defs>
</svg>
