<svg width="47" height="60" viewBox="0 0 47 60" fill="none" xmlns="http://www.w3.org/2000/svg">
<path d="M23.5001 0C12.1613 0 2.93762 7.85004 2.93762 17.5V28.75C2.93762 29.44 3.59567 30 4.40642 30C5.21717 30 5.87508 29.44 5.87508 28.75V17.5C5.87508 9.22746 13.7799 2.49996 23.5001 2.49996C33.2203 2.49996 41.1251 9.22746 41.1251 17.5V22.5H38.1877V17.5C38.1877 10.6075 31.5988 4.99992 23.5001 4.99992C15.4014 4.99992 8.81254 10.6075 8.81254 17.5V28.75C8.81254 29.44 9.47059 30 10.2813 30C11.0921 30 11.7501 29.44 11.7501 28.75V17.5C11.7501 11.985 17.02 7.5 23.5001 7.5C29.9802 7.5 35.2501 11.985 35.2501 17.5V23.7499C35.2501 24.4399 35.9081 25 36.7189 25H42.5939C43.4047 25 44.0627 24.4399 44.0627 23.7499V17.5C44.0626 7.85004 34.8389 0 23.5001 0Z" fill="#FFAA17"/>
<path d="M42.5939 27.5H4.40625C1.97689 27.5 0 29.1825 0 31.25V53.75C0 57.195 3.29588 60 7.34371 60H39.6563C43.7041 60 47 57.195 47 53.75V31.25C47.0001 29.1825 45.0231 27.5 42.5939 27.5ZM44.0625 53.75C44.0625 55.8175 42.0857 57.5 39.6563 57.5H7.34385C4.91449 57.5 2.93759 55.8175 2.93759 53.75V31.25C2.93759 30.56 3.59564 30 4.40639 30H42.5939C43.4046 30 44.0627 30.56 44.0627 31.25V53.75H44.0625Z" fill="#FFAA17"/>
<path d="M27.4656 43.6749C28.6789 42.7374 29.3751 41.4225 29.3751 39.9999C29.3751 37.2424 26.7401 34.9999 23.5 34.9999C20.2599 34.9999 17.625 37.2424 17.625 39.9999C17.625 41.4225 18.3212 42.7374 19.5344 43.6725L17.7014 48.3525C17.5487 48.735 17.625 49.155 17.9012 49.4799C18.1773 49.8075 18.6209 49.9999 19.0938 49.9999H27.9063C28.3793 49.9999 28.8228 49.8073 29.0989 49.4824C29.372 49.1548 29.4485 48.7348 29.2987 48.3549L27.4656 43.6749ZM24.3431 43.61L25.8677 47.5H21.1325L22.6571 43.61C22.8745 43.0525 22.6071 42.44 22.0137 42.14C21.106 41.68 20.5626 40.88 20.5626 40C20.5626 38.6225 21.8815 37.5001 23.5 37.5001C25.1185 37.5001 26.4375 38.6226 26.4375 40C26.4375 40.88 25.894 41.68 24.9863 42.14C24.393 42.44 24.1228 43.0524 24.3431 43.61Z" fill="#FFAA17"/>
</svg>
