<svg width="54" height="60" viewBox="0 0 54 60" fill="none" xmlns="http://www.w3.org/2000/svg">
<path d="M43.4723 18.8484C42.308 18.8484 41.3608 19.8341 41.3608 21.0454V34.9464C41.3608 36.1578 42.308 37.1435 43.4723 37.1435C44.6366 37.1435 45.5837 36.1579 45.5837 34.9464V21.0454C45.5836 19.8341 44.6364 18.8484 43.4723 18.8484ZM43.9308 34.9464C43.9308 35.2096 43.725 35.4237 43.472 35.4237C43.2191 35.4237 43.0133 35.2096 43.0133 34.9464V21.0454C43.0133 20.7822 43.2191 20.5681 43.472 20.5681C43.725 20.5681 43.9308 20.7822 43.9308 21.0454V34.9464Z" fill="#232429"/>
<path d="M51 0H3.10418C1.47341 0 0.146729 1.38047 0.146729 3.07723V44.2737C0.146729 44.7486 0.516691 45.1335 0.973034 45.1335C1.42938 45.1335 1.79934 44.7485 1.79934 44.2737V3.07723C1.79934 2.32863 2.38464 1.71973 3.10406 1.71973H50.9998C51.7193 1.71973 52.3046 2.32863 52.3046 3.07723V52.9147C52.3046 53.6633 51.7193 54.2723 50.9998 54.2723H3.10418C2.38475 54.2723 1.79945 53.6633 1.79945 52.9147V49.8066C1.79945 49.3316 1.42949 48.9468 0.973147 48.9468C0.516804 48.9468 0.146841 49.3317 0.146841 49.8066V52.9147C0.146841 54.6116 1.47353 55.9921 3.10429 55.9921H4.70768L5.07156 58.2968C5.1932 59.2693 5.9909 60 6.93568 60H10.2554C11.2001 60 11.9979 59.2693 12.1197 58.2968L12.4835 55.9921H41.6207L41.9846 58.2968C42.1064 59.2693 42.9041 60 43.8488 60H47.1686C48.1132 60 48.911 59.2693 49.0328 58.2968L49.3967 55.9921H51.0001C52.6308 55.9921 53.9575 54.6116 53.9575 52.9147V3.07723C53.9575 1.38047 52.6307 0 51 0ZM10.4864 58.0342C10.4844 58.0467 10.4827 58.0593 10.4812 58.0718C10.4676 58.1907 10.3706 58.2803 10.2555 58.2803H6.93568C6.82058 58.2803 6.72361 58.1907 6.70999 58.0718C6.70863 58.0593 6.70683 58.0467 6.70481 58.0342L6.38248 55.9922H10.8087L10.4864 58.0342ZM47.3996 58.0342C47.3975 58.0467 47.3958 58.0593 47.3944 58.0718C47.3807 58.1907 47.2838 58.2803 47.1687 58.2803H43.8489C43.7338 58.2803 43.6369 58.1907 43.6232 58.0718C43.6219 58.0593 43.6201 58.0467 43.618 58.0342L43.2956 55.9922H47.7219L47.3996 58.0342Z" fill="#232429"/>
<path d="M47.9863 11.1593C48.4428 11.1593 48.8126 10.7743 48.8126 10.2995V8.09355C48.8126 6.56741 47.6195 5.32593 46.1529 5.32593H7.8984C6.43172 5.32593 5.23861 6.56741 5.23861 8.09355V12.5959H4.92912C4.13187 12.5959 3.4834 13.2707 3.4834 14.1002V17.7465C3.4834 18.5761 4.13187 19.2508 4.92912 19.2508H5.23861V36.7414H4.92912C4.13187 36.7414 3.4834 37.4162 3.4834 38.2458V41.8919C3.4834 42.7215 4.13187 43.3963 4.92912 43.3963H5.23861V47.8987C5.23861 49.4249 6.43172 50.6664 7.8984 50.6664H46.1529C47.6195 50.6664 48.8126 49.4249 48.8126 47.8987V15.7521C48.8126 15.2771 48.4427 14.8923 47.9863 14.8923C47.5299 14.8923 47.16 15.2773 47.16 15.7521V47.8989C47.16 48.4767 46.7082 48.9469 46.1529 48.9469H7.8984C7.34306 48.9469 6.89122 48.4767 6.89122 47.8989V43.3964H7.30995C8.1072 43.3964 8.75567 42.7216 8.75567 41.8921V38.2459C8.75567 37.4163 8.1072 36.7416 7.30995 36.7416H6.89122V19.2508H7.30995C8.1072 19.2508 8.75567 18.5761 8.75567 17.7465V14.1002C8.75567 13.2707 8.1072 12.5959 7.30995 12.5959H6.89122V8.09355C6.89122 7.51569 7.34306 7.04554 7.8984 7.04554H46.1529C46.7082 7.04554 47.16 7.51569 47.16 8.09355V10.2995C47.16 10.7744 47.53 11.1593 47.9863 11.1593ZM7.10317 38.4612V41.6766H6.06503H5.13624V38.4612H6.06503H7.10317ZM7.10306 14.3157V17.5311H6.06491H5.13612V14.3156H6.06277C6.06345 14.3156 6.06413 14.3157 6.06491 14.3157H7.10306Z" fill="#232429"/>
<path d="M27.0519 18.079C21.7966 18.079 17.5212 22.5278 17.5212 27.996C17.5212 33.4642 21.7967 37.9129 27.0519 37.9129C32.307 37.9129 36.5825 33.4642 36.5825 27.996C36.5825 22.5278 32.3072 18.079 27.0519 18.079ZM34.8864 27.1362H32.7477C32.6075 26.1262 32.2251 25.1966 31.6627 24.4146L33.1728 22.8432C34.107 24.0424 34.7235 25.5198 34.8864 27.1362ZM27.8783 19.8441C29.4317 20.0134 30.8515 20.6549 32.0041 21.6271L30.4938 23.1985C29.7423 22.6133 28.8489 22.2155 27.8783 22.0696V19.8441ZM26.2257 19.8441V22.0696C25.2551 22.2155 24.3617 22.6132 23.6101 23.1985L22.0999 21.6271C23.2523 20.6549 24.672 20.0133 26.2257 19.8441ZM20.931 22.8431L22.4411 24.4145C21.8786 25.1965 21.4963 26.1261 21.3561 27.136H19.2174C19.3802 25.5198 19.9968 24.0424 20.931 22.8431ZM19.2176 28.8559H21.3562C21.4965 29.8659 21.8787 30.7955 22.4412 31.5776L20.9311 33.1489C19.9968 31.9496 19.3802 30.4722 19.2176 28.8559ZM26.2257 36.148C24.6723 35.9787 23.2525 35.3372 22.0999 34.365L23.61 32.7936C24.3615 33.379 25.255 33.7767 26.2257 33.9226V36.148ZM22.9476 27.9961C22.9476 25.6374 24.7851 23.7254 27.0519 23.7254C29.3186 23.7254 31.1561 25.6374 31.1561 27.9961C31.1561 30.3547 29.3186 32.2667 27.0519 32.2667C24.7852 32.2667 22.9476 30.3546 22.9476 27.9961ZM27.8783 36.148V33.9226C28.849 33.7767 29.7423 33.379 30.4939 32.7936L32.0041 34.365C30.8516 35.3372 29.4318 35.9787 27.8783 36.148ZM33.1727 33.1488L31.6626 31.5774C32.2251 30.7955 32.6074 29.8658 32.7476 28.8558H34.8863C34.7235 30.4722 34.107 31.9496 33.1727 33.1488Z" fill="#232429"/>
</svg>
