<svg width="60" height="60" viewBox="0 0 60 60" fill="none" xmlns="http://www.w3.org/2000/svg">
<g clip-path="url(#clip0_327_688)">
<path d="M19.2251 33.7678L20.0628 34.8925C20.1081 34.9539 20.1791 34.9878 20.2523 34.9878C20.2775 34.9878 20.3031 34.9836 20.3283 34.9749C20.4254 34.942 20.4899 34.8504 20.4885 34.7479L20.4666 33.3453C20.457 32.7177 20.7518 32.119 21.2548 31.7441L22.3796 30.9064C22.462 30.845 22.4954 30.7379 22.4624 30.6409C22.4295 30.5447 22.3397 30.4806 22.2386 30.4806C22.2377 30.4806 22.2363 30.4806 22.2349 30.4806L20.8328 30.5026C20.2075 30.5173 19.6064 30.2174 19.2315 29.7139L18.3934 28.5892C18.332 28.5068 18.2249 28.4738 18.1278 28.5068C18.0308 28.5397 17.9663 28.6317 17.9676 28.7338L17.9896 30.1364C17.9997 30.764 17.7049 31.3627 17.2013 31.7376L16.0766 32.5758C15.9942 32.6367 15.9608 32.7438 15.9938 32.8413C16.0267 32.937 16.1164 33.0011 16.2176 33.0011H16.2213L17.6234 32.9796C17.6339 32.9791 17.644 32.9791 17.6541 32.9791C18.2707 32.9791 18.8557 33.2725 19.2251 33.7678ZM17.6541 32.5067C17.6417 32.5067 17.6289 32.5067 17.6161 32.5071L16.9454 32.5177L17.4833 32.1167C18.1082 31.6511 18.4744 30.9082 18.462 30.1291L18.4515 29.458L18.8525 29.9963C19.3103 30.6111 20.0367 30.975 20.8026 30.975H20.8401L21.5107 30.9645L20.9729 31.365C20.348 31.8306 19.9818 32.5735 19.9942 33.3526L20.0047 34.0237L19.6037 33.4854C19.1459 32.8706 18.4194 32.5067 17.6541 32.5067Z" fill="#232429"/>
<path d="M37.5687 28.9251L37.7207 30.3195C37.7317 30.4216 37.8072 30.5049 37.9074 30.5255C37.9235 30.5287 37.9395 30.5301 37.9555 30.5301C38.0393 30.5301 38.118 30.4857 38.1606 30.4106L38.8532 29.1911C39.1631 28.645 39.7206 28.2783 40.3446 28.2106L41.7389 28.0591C41.841 28.0481 41.9243 27.9725 41.9449 27.8718C41.9655 27.7716 41.9193 27.669 41.83 27.6187L40.6105 26.9266C40.0644 26.6162 39.6982 26.0586 39.6305 25.4347L39.4785 24.0404C39.4675 23.9383 39.392 23.8554 39.2917 23.8348C39.1905 23.8138 39.0889 23.8605 39.0386 23.9493L38.346 25.1692C38.0361 25.7149 37.4785 26.0815 36.8546 26.1493L35.4602 26.3013C35.3582 26.3122 35.2748 26.3878 35.2542 26.488C35.2336 26.5887 35.2799 26.6908 35.3691 26.7412L36.5886 27.4338C37.1347 27.7437 37.5009 28.3012 37.5687 28.9251ZM36.9054 26.6189C37.6799 26.5347 38.3721 26.0802 38.7566 25.4027L39.088 24.819L39.1608 25.486C39.245 26.2605 39.6996 26.9527 40.3771 27.3372L40.9607 27.6686L40.2938 27.7414C39.5192 27.8256 38.8271 28.2802 38.4426 28.9576L38.1111 29.5413L38.0384 28.8743C37.9546 28.0998 37.4996 27.4077 36.8221 27.0231L36.2384 26.6917L36.9054 26.6189Z" fill="#232429"/>
<path d="M41.402 42.6103L42.7964 42.4588C42.8985 42.4478 42.9813 42.3723 43.0024 42.2721C43.023 42.1718 42.9767 42.0693 42.8875 42.0189L41.6675 41.3263C41.1219 41.0164 40.7552 40.4584 40.6875 39.8349L40.5359 38.4401C40.525 38.3385 40.4494 38.2552 40.3487 38.2346C40.248 38.214 40.1464 38.2602 40.0956 38.349L39.403 39.569C39.0931 40.1151 38.5355 40.4813 37.9116 40.549L36.5172 40.7006C36.4152 40.7115 36.3318 40.7875 36.3112 40.8878C36.2906 40.988 36.3369 41.0901 36.4261 41.1409L37.6461 41.8331C38.1917 42.143 38.5584 42.7005 38.6262 43.3244L38.7777 44.7192C38.7891 44.8209 38.8642 44.9042 38.9649 44.9248C38.9809 44.9284 38.9969 44.9298 39.0125 44.9298C39.0963 44.9298 39.1755 44.885 39.218 44.8099L39.9102 43.5904C40.2201 43.0448 40.7781 42.6785 41.402 42.6103ZM39.4996 43.3574L39.1682 43.9411L39.0958 43.2741C39.0116 42.4991 38.557 41.807 37.8791 41.4224L37.2954 41.0915L37.9624 41.0187C38.7374 40.9345 39.4295 40.4799 39.8141 39.802L40.145 39.2183L40.2178 39.8857C40.302 40.6603 40.757 41.3524 41.4345 41.7369L42.0182 42.0683L41.3508 42.1407C40.5762 42.2249 39.8841 42.6799 39.4996 43.3574Z" fill="#232429"/>
<path d="M58.981 58.9733C58.9673 58.6167 58.916 53.1254 58.8936 50.767C58.8877 50.0963 58.8831 49.6125 58.8813 49.4518C58.8739 48.7395 58.8762 46.7821 58.8794 44.0726C58.8872 37.5747 58.9 26.6992 58.797 17.4231C58.7403 12.2884 58.6542 8.26602 58.5407 5.46772C58.4761 3.86556 58.4011 2.6296 58.3173 1.79281C58.2083 0.699672 58.1131 0.0295079 57.5528 0.0240148C50.9258 -0.0382409 44.2346 0.0336278 37.7637 0.103665C35.5275 0.127469 33.2904 0.15173 31.0511 0.170499L17.3488 0.286313C17.0888 0.288601 16.2946 0.293637 15.1969 0.300961C13.071 0.314236 9.80624 0.335293 7.07339 0.35635C5.70605 0.366879 4.47192 0.377865 3.57974 0.387936C3.13205 0.392971 2.77041 0.397549 2.52047 0.402126C2.39322 0.404415 2.29434 0.406704 2.22751 0.408993C1.72809 0.425015 1.67132 0.745906 1.66995 0.882777V0.887354C1.66995 9.72308 1.58435 18.5648 1.50058 26.0483C1.47082 28.728 1.48684 31.4499 1.50195 34.0829C1.51706 36.6725 1.53308 39.3508 1.5047 41.9825C1.47311 44.9635 1.33761 47.9957 1.20623 50.9286C1.10278 53.2453 0.995663 55.6408 0.940274 58.0001C0.93295 58.304 0.92059 58.8121 1.23874 59.2003C1.62005 59.6654 2.24994 59.6947 2.58868 59.7107C6.71542 59.9044 10.606 60 14.3981 60C15.3845 60 16.3651 59.9936 17.3406 59.9808C20.9001 59.9337 24.5197 59.8993 28.0197 59.8659C32.4344 59.8238 36.9997 59.7803 41.4876 59.7112C42.9703 59.6878 44.4823 59.6613 45.9815 59.6311C46.5079 59.6205 47.0348 59.6064 47.5617 59.5922C48.5948 59.5642 49.6633 59.5354 50.7097 59.5354C53.8504 59.5354 56.2583 59.5212 58.5173 59.4892C58.7769 59.4855 58.9847 59.2731 58.9829 59.0131C58.9829 58.9998 58.9824 58.9865 58.981 58.9733ZM54.1082 42.1784C54.1054 44.5267 54.1036 46.2232 54.11 46.8449C54.1118 46.9826 54.1155 47.3951 54.121 47.9673C54.1315 49.1144 54.1484 50.9025 54.164 52.4035C54.1713 53.1542 54.1786 53.8335 54.1851 54.3251C54.1864 54.4442 54.1878 54.5527 54.1892 54.6479C52.3801 54.6712 50.4204 54.6813 47.9187 54.6813C47.0014 54.6813 46.0707 54.7065 45.1708 54.7307C44.7167 54.7431 44.2626 54.7554 43.8089 54.7646C43.3914 54.7728 42.9749 54.7806 42.5583 54.7884C45.2417 47.2138 48.1288 40.3089 51.6188 33.1221C51.8202 33.2374 52.034 33.3308 52.2556 33.3999L49.4605 42.9983C49.4239 43.1232 49.4957 43.2546 49.6212 43.2908C49.6431 43.2977 49.6656 43.3004 49.6875 43.3004C49.7896 43.3004 49.8839 43.2336 49.9141 43.1301L52.7161 33.5084C52.7491 33.5139 52.782 33.518 52.815 33.5221L51.9896 43.7275C51.9786 43.857 52.0757 43.9715 52.2057 43.9816C52.2121 43.9825 52.2185 43.9825 52.2249 43.9825C52.3467 43.9825 52.4501 43.8891 52.4602 43.7655L53.2869 33.5473C53.5648 33.5409 53.8417 33.4974 54.1095 33.4146C54.1146 36.9659 54.1109 40.0791 54.1082 42.1784ZM1.89471 57.6426C1.95193 55.4155 2.05218 53.1579 2.15014 50.9707C2.28152 48.0305 2.41748 44.9895 2.44952 41.9926C2.4779 39.3531 2.46188 36.6711 2.44677 34.0774C2.43167 31.4485 2.41565 28.7303 2.4454 26.0588C2.52551 18.887 2.60745 10.4679 2.61432 2.00063L5.26751 4.79802C5.30963 4.84242 5.35907 4.87584 5.41125 4.9001C5.41079 12.5177 5.33709 20.1312 5.26477 26.5793C5.23913 28.8987 5.25287 31.2553 5.26614 33.534C5.27942 35.7752 5.29269 38.0929 5.26843 40.3703C5.24096 42.9488 5.12378 45.5732 5.01025 48.1106C4.92053 50.116 4.82806 52.1897 4.78 54.2327C4.77633 54.3673 4.77221 54.5467 4.80426 54.7362C4.79144 54.7467 4.77816 54.7554 4.76626 54.7673L1.89471 57.6426ZM20.365 5.15324C21.0778 12.2399 18.6521 19.4405 13.6945 24.9309C12.4933 26.2611 11.3979 27.194 10.2457 27.866C9.70462 28.1819 9.15301 28.4337 8.60049 28.6209C10.4265 27.4659 12.0282 25.9732 13.3063 24.2172C15.0705 21.7929 16.1724 18.9355 16.4919 15.9541C16.5056 15.8241 16.4118 15.7079 16.2822 15.6937C16.1545 15.6799 16.0359 15.7738 16.0222 15.9033C15.7109 18.8028 14.6402 21.5814 12.9241 23.9393C11.3819 26.0592 9.35397 27.7859 7.02487 28.9761C6.9736 28.9821 6.92233 28.9871 6.87106 28.9912C10.2173 26.4227 12.4352 22.3413 12.7217 18.1349C12.7304 18.0045 12.6325 17.8919 12.502 17.8832C12.3725 17.8745 12.2594 17.9724 12.2502 18.1029C11.9861 21.982 10.0251 25.7507 7.03952 28.2496C8.81289 24.8805 9.59292 21.0156 9.24457 17.2167C9.23266 17.0866 9.1196 16.991 8.98776 17.0029C8.85821 17.0148 8.76208 17.1297 8.77444 17.2597C9.14111 21.2591 8.2265 25.3337 6.19632 28.7948C6.19769 28.0583 6.20181 27.3218 6.20959 26.5898C6.28054 20.2411 6.35333 12.7635 6.35608 5.26173C8.06033 5.23518 14.3024 5.1949 17.1643 5.17704C18.1279 5.17064 18.8251 5.16606 19.0526 5.16423L20.365 5.15324ZM8.51077 31.8028C7.98251 32.467 7.018 32.7586 6.20547 32.5206C6.20089 31.6728 6.19677 30.8172 6.1954 29.9594C6.2334 29.9598 6.27139 29.9617 6.30893 29.9617C7.11871 29.9617 7.94818 29.8253 8.77307 29.5593C9.0935 30.2771 9.00058 31.1871 8.51077 31.8028ZM5.72436 54.2551C5.77243 52.2217 5.8649 50.1536 5.95416 48.1531C6.06814 45.6075 6.18579 42.9754 6.21325 40.3803C6.23797 38.0952 6.22424 35.7739 6.21096 33.5286C6.21096 33.5167 6.21096 33.5047 6.21096 33.4928C6.37988 33.5253 6.55154 33.5432 6.72366 33.5473L7.54992 43.7655C7.55999 43.8891 7.66345 43.9825 7.78521 43.9825C7.79162 43.9825 7.79803 43.9825 7.80444 43.982C7.93444 43.9715 8.03149 43.8575 8.02096 43.7275L7.19516 33.5226C7.22857 33.518 7.26153 33.5139 7.29449 33.5089L10.0965 43.1306C10.1267 43.2336 10.221 43.3009 10.3231 43.3009C10.345 43.3009 10.367 43.2977 10.3894 43.2912C10.5144 43.2546 10.5867 43.1237 10.5501 42.9983L7.755 33.4004C7.9761 33.3308 8.19033 33.2379 8.39175 33.1225C11.8364 40.2178 14.8371 47.4088 17.5557 55.0809C13.9513 55.1011 10.2567 55.0196 6.31121 54.8342C6.17755 54.8282 5.86444 54.8131 5.78296 54.7138C5.71566 54.6309 5.72116 54.3865 5.72436 54.2551ZM18.5559 55.0727C15.7718 47.1804 12.6934 39.7985 9.14706 32.5128C9.18231 32.4734 9.2171 32.4331 9.25006 32.391C9.95364 31.5066 10.0946 30.2523 9.65655 29.2242C10.015 29.0677 10.3707 28.8868 10.7218 28.6822C11.9605 27.9594 13.1278 26.9684 14.3958 25.5639C19.5117 19.8982 22.024 12.4692 21.3135 5.145L26.603 5.1006C26.5544 13.3898 26.5041 21.6157 26.4533 29.8408C26.402 38.2005 26.3507 46.5606 26.3013 54.9866C23.8944 55.01 21.4453 55.0351 19.0265 55.0672C18.87 55.0695 18.7129 55.0708 18.5559 55.0727ZM27.3981 29.8463C27.4489 21.6167 27.4993 13.3866 27.5478 5.09236L29.7061 5.07451C29.6572 13.3879 29.6027 21.7796 29.5496 29.898C29.4965 38.0934 29.4416 46.5652 29.3921 54.9569C29.0195 54.9605 28.6464 54.9642 28.2761 54.9674C27.9341 54.9706 27.5904 54.9743 27.2461 54.9775C27.2956 46.5565 27.3468 38.2014 27.3981 29.8463ZM30.4949 29.9044C30.5475 21.781 30.602 13.3852 30.651 5.06627L30.9114 5.06398C31.4186 5.05986 31.9254 5.05482 32.4321 5.04979C32.3836 13.3733 32.3369 21.656 32.2911 29.9383C32.2444 38.2549 32.1982 46.5716 32.1492 54.9299C31.5431 54.9358 30.9394 54.9418 30.3374 54.9477C30.3864 46.561 30.4418 38.0947 30.4949 29.9044ZM33.236 29.9434C33.2822 21.6565 33.3284 13.3692 33.3769 5.04109C34.4921 5.02964 35.6067 5.0182 36.7209 5.0063C37.3819 4.99898 38.0461 4.99211 38.7122 4.98478C37.9491 12.3603 40.4613 19.8566 45.6148 25.5639C46.8828 26.9684 48.0506 27.9594 49.2888 28.6822C49.6399 28.8868 49.9956 29.0677 50.354 29.2242C49.916 30.2523 50.0569 31.5066 50.7605 32.391C50.7935 32.4331 50.8283 32.4734 50.8635 32.5128C47.2637 39.9088 44.3019 46.9968 41.5489 54.8067C41.0028 54.8163 40.4599 54.8255 39.9239 54.8333C37.657 54.8685 35.3678 54.8955 33.0941 54.9198C33.143 46.5665 33.1893 38.2549 33.236 29.9434ZM51.5003 31.8028C51.01 31.1871 50.9171 30.2771 51.2375 29.5593C52.0624 29.8253 52.8919 29.9617 53.7017 29.9617C53.8065 29.9617 53.9113 29.9594 54.0157 29.9548C54.0454 29.9534 54.0743 29.9489 54.1027 29.942C54.1049 30.7888 54.1068 31.622 54.1082 32.4363C54.0605 32.4391 54.0125 32.4473 53.9658 32.4656C53.123 32.7961 52.0633 32.5109 51.5003 31.8028ZM53.5359 4.93443C53.9406 6.84605 54.0651 18.7039 54.0995 29.0246C54.0592 29.0155 54.0175 29.0091 53.974 29.0109C53.9727 29.0109 53.9713 29.0109 53.9699 29.0109C53.9543 28.9999 53.9383 28.9889 53.9228 28.9779C51.8166 25.4779 50.8631 21.3301 51.2366 17.2597C51.2485 17.1297 51.1528 17.0148 51.0228 17.0029C50.8919 16.991 50.7779 17.0866 50.766 17.2167C50.4177 21.0156 51.1977 24.88 52.9706 28.2492C49.9855 25.7503 48.0245 21.982 47.7603 18.1029C47.7516 17.9724 47.6381 17.8745 47.5086 17.8832C47.3786 17.8919 47.2801 18.0045 47.2888 18.1349C47.5754 22.3413 49.7933 26.4227 53.1395 28.9912C53.0883 28.9866 53.037 28.9821 52.9857 28.9761C50.6566 27.7859 48.6292 26.0588 47.0865 23.9393C45.3704 21.5814 44.2992 18.8023 43.9884 15.9033C43.9746 15.7738 43.857 15.6795 43.7284 15.6937C43.5988 15.7079 43.5045 15.8241 43.5187 15.9537C43.8382 18.9351 44.9401 21.7924 46.7043 24.2172C47.9819 25.9732 49.5841 27.4659 51.4101 28.6209C50.8576 28.4332 50.306 28.1819 49.7649 27.866C48.6132 27.1936 47.5168 26.2611 46.3156 24.9309C41.3237 19.4016 38.8976 12.1387 39.6593 5.00401C39.6602 4.9944 39.6588 4.98478 39.6593 4.97517C44.2333 4.92894 48.902 4.89415 53.5359 4.93443ZM55.1372 54.88C55.1216 53.91 55.0832 49.8144 55.0658 47.9586C55.0603 47.3859 55.0562 46.9726 55.0548 46.8348C55.0484 46.2186 55.0502 44.5245 55.053 42.1798C55.0598 36.5553 55.0708 27.1423 54.982 19.1136C54.933 14.6692 54.8584 11.187 54.76 8.76453C54.7042 7.37659 54.6387 6.30543 54.5664 5.58033C54.5243 5.15828 54.4849 4.7646 54.3865 4.47484L57.3629 1.63396C57.9785 7.0264 57.9456 34.5498 57.9341 44.0717C57.9309 46.7844 57.9286 48.7441 57.9364 49.4619C57.9378 49.6221 57.9424 50.106 57.9488 50.7761C57.9611 52.1045 57.9804 54.1663 57.9982 55.8953C58.0065 56.6968 58.0142 57.4242 58.0207 57.9772C56.9532 57.0507 55.985 56.0111 55.1372 54.88ZM15.2028 1.24578C16.3019 1.23846 17.0966 1.23342 17.3571 1.23113L31.0588 1.11578C33.2991 1.09701 35.5371 1.07275 37.7738 1.04849C43.9646 0.981653 50.3563 0.913905 56.6977 0.962428L53.5263 3.99007C47.8922 3.94154 42.2095 4.00197 36.7104 4.06148C34.7763 4.08208 32.8409 4.10313 30.9037 4.11916L19.0444 4.21941C18.8173 4.22124 18.1206 4.22581 17.1584 4.23177C15.3141 4.24367 12.4942 4.26152 10.1358 4.27983C8.95617 4.28944 7.89142 4.2986 7.12191 4.3073C6.73602 4.31142 6.42382 4.31554 6.20868 4.31966C6.151 4.32057 6.10019 4.32149 6.0567 4.32286C6.03564 4.25969 6.00177 4.19926 5.95279 4.14799L3.28631 1.33596C5.84201 1.30529 12.1646 1.26501 15.2028 1.24578ZM47.5365 58.6473C47.0114 58.6615 46.4868 58.6757 45.9622 58.6863C44.4649 58.7165 42.9543 58.7435 41.473 58.7664C36.9878 58.8355 32.4243 58.879 28.0106 58.9211C24.5096 58.9545 20.8896 58.9888 17.3282 59.036C12.6215 59.0987 7.81405 59.0103 2.63308 58.7668C2.50949 58.7613 2.31768 58.7517 2.16571 58.7082L5.32245 55.5474C5.64746 55.7483 6.03381 55.7671 6.26681 55.7781C9.84012 55.9461 13.2083 56.0289 16.4919 56.0289C17.3456 56.0289 18.1943 56.0234 19.0389 56.012C22.1205 55.9713 25.2544 55.9415 28.2848 55.9127C32.1048 55.876 36.0549 55.8385 39.9381 55.7785C41.212 55.7589 42.5208 55.7355 43.8282 55.7094C44.2841 55.7003 44.74 55.6879 45.1964 55.6755C46.09 55.6513 47.0142 55.6266 47.9187 55.6266C50.5582 55.6266 52.5957 55.6151 54.4899 55.589C55.3112 56.6657 56.2363 57.6627 57.2502 58.5599C55.3473 58.581 53.2732 58.5906 50.7097 58.5906C49.6504 58.5906 48.5761 58.6194 47.5365 58.6473Z" fill="#232429"/>
</g>
<defs>
<clipPath id="clip0_327_688">
<rect width="60" height="60" fill="white"/>
</clipPath>
</defs>
</svg>
