<svg width="49" height="60" viewBox="0 0 49 60" fill="none" xmlns="http://www.w3.org/2000/svg">
<path d="M45 0H21C18.7909 0 17 1.79086 17 4V16H4C1.79086 16 0 17.7909 0 20V22C0 24.2091 1.79086 26 4 26H17V44C17 52.8366 24.1634 60 33 60C41.8366 60 49 52.8366 49 44V4C49 1.79086 47.2091 0 45 0ZM2 22V20C2 18.8954 2.89543 18 4 18H33C34.1046 18 35 18.8954 35 20V22C35 23.1046 34.1046 24 33 24H4C2.89543 24 2 23.1046 2 22ZM33 16H26.78C28.9031 13.3483 32.4693 12.3265 35.6745 13.4515C38.8797 14.5765 41.025 17.6031 41.025 21C41.025 24.3969 38.8797 27.4235 35.6745 28.5485C32.4693 29.6735 28.9031 28.6517 26.78 26H33C35.2091 26 37 24.2091 37 22V20C37 17.7909 35.2091 16 33 16ZM47 44C47 51.732 40.732 58 33 58C25.268 58 19 51.732 19 44V26H24.37C26.633 29.9197 31.2466 31.8307 35.6184 30.6593C39.9903 29.4878 43.0303 25.5261 43.0303 21C43.0303 16.4739 39.9903 12.5122 35.6184 11.3407C31.2466 10.1693 26.633 12.0803 24.37 16H19V4C19 2.89543 19.8954 2 21 2H45C46.1046 2 47 2.89543 47 4V44Z" fill="#232429"/>
<path d="M24 4H22C21.4477 4 21 4.44772 21 5C21 5.55228 21.4477 6 22 6H24C24.5523 6 25 5.55228 25 5C25 4.44772 24.5523 4 24 4Z" fill="#232429"/>
<path d="M38 4H28C27.4477 4 27 4.44772 27 5C27 5.55228 27.4477 6 28 6H38C38.5523 6 39 5.55228 39 5C39 4.44772 38.5523 4 38 4Z" fill="#232429"/>
<path d="M33 37C31.426 36.9985 29.9974 37.9203 29.3501 39.3551C28.7029 40.7899 28.9572 42.4709 30 43.65V46C30.0007 46.7905 30.3134 47.5488 30.87 48.11C31.7257 48.9728 33.0174 49.2341 34.1412 48.7719C35.265 48.3097 35.999 47.2152 36 46V43.65C37.0428 42.4709 37.2972 40.7899 36.6499 39.3551C36.0026 37.9203 34.5741 36.9985 33 37ZM34.34 42.48C34.1242 42.6696 34.0004 42.9428 34 43.23V46C33.9944 46.4026 33.7477 46.7626 33.3743 46.9133C33.0009 47.0639 32.5736 46.9759 32.29 46.69C31.92 46.33 32 46.22 32 43.23C31.9997 42.9428 31.8758 42.6696 31.66 42.48C31.0457 41.9255 30.8363 41.0499 31.1333 40.2775C31.4303 39.505 32.1724 38.9953 33 38.9953C33.8276 38.9953 34.5697 39.505 34.8668 40.2775C35.1638 41.0499 34.9544 41.9255 34.34 42.48Z" fill="#232429"/>
<path d="M9.2 32.6C9.64183 32.2686 9.73137 31.6418 9.4 31.2C9.06863 30.7582 8.44183 30.6686 8 31C4.22291 33.8328 2 38.2786 2 43C2 47.7213 4.22291 52.1672 8 55C8.1731 55.1298 8.38363 55.2 8.6 55.2C9.03043 55.2 9.41257 54.9246 9.54868 54.5162C9.6848 54.1079 9.54434 53.6582 9.2 53.4C5.92652 50.9449 4 47.0918 4 43C4 38.9081 5.92652 35.0551 9.2 32.6Z" fill="#232429"/>
<path d="M11.6 35.8C11.8858 35.5856 12.0356 35.2351 11.9928 34.8804C11.9501 34.5257 11.7214 34.2207 11.3928 34.0804C11.0643 33.9401 10.6858 33.9856 10.4 34.2C7.63013 36.2774 6 39.5377 6 43C6 46.4623 7.63013 49.7226 10.4 51.8C10.5731 51.9298 10.7836 52 11 52C11.4304 52 11.8126 51.7246 11.9487 51.3162C12.0848 50.9079 11.9443 50.4583 11.6 50.2C9.33375 48.5003 8 45.8328 8 43C8 40.1672 9.33375 37.4997 11.6 35.8Z" fill="#232429"/>
<path d="M14 39.0001C14.2858 38.7857 14.4356 38.4352 14.3928 38.0805C14.3501 37.7258 14.1214 37.4208 13.7928 37.2805C13.4643 37.1401 13.0858 37.1857 12.8 37.4001C11.0374 38.7221 10 40.7968 10 43.0001C10 45.2034 11.0374 47.2781 12.8 48.6001C13.2418 48.9314 13.8686 48.8419 14.2 48.4001C14.5314 47.9582 14.4418 47.3314 14 47.0001C12.741 46.0558 12 44.5739 12 43.0001C12 41.4263 12.741 39.9444 14 39.0001Z" fill="#232429"/>
</svg>
