<svg width="20" height="20" viewBox="0 0 20 20" fill="none" xmlns="http://www.w3.org/2000/svg">
<path d="M18.4375 2.34375H18.125V1.71875C18.125 1.2018 17.7045 0.78125 17.1875 0.78125C16.6705 0.78125 16.25 1.2018 16.25 1.71875V2.34375H3.75V1.71875C3.75 1.2018 3.32945 0.78125 2.8125 0.78125C2.29555 0.78125 1.875 1.2018 1.875 1.71875V2.34375H1.5625C0.700938 2.34375 0 3.04469 0 3.90625V17.6562C0 18.5178 0.700938 19.2188 1.5625 19.2188H18.4375C19.2991 19.2188 20 18.5178 20 17.6562V3.90625C20 3.04469 19.2991 2.34375 18.4375 2.34375ZM16.875 1.71875C16.875 1.54645 17.0152 1.40625 17.1875 1.40625C17.3598 1.40625 17.5 1.54645 17.5 1.71875V2.65551C17.5 2.65578 17.5 2.65602 17.5 2.65625C17.5 2.65648 17.5 2.65676 17.5 2.65699V3.59375C17.5 3.76605 17.3598 3.90625 17.1875 3.90625C17.0152 3.90625 16.875 3.76605 16.875 3.59375V1.71875ZM2.8125 1.40625C2.9848 1.40625 3.125 1.54645 3.125 1.71875V3.59375C3.125 3.76605 2.9848 3.90625 2.8125 3.90625C2.6402 3.90625 2.5 3.76605 2.5 3.59375V2.65664C2.5 2.65652 2.5 2.65637 2.5 2.65625C2.5 2.65613 2.5 2.65602 2.5 2.65586V1.71875C2.5 1.54645 2.6402 1.40625 2.8125 1.40625ZM18.4375 18.5938H1.5625C1.04555 18.5938 0.625 18.1732 0.625 17.6562V5.78125H15.625C15.7976 5.78125 15.9375 5.64133 15.9375 5.46875C15.9375 5.29617 15.7976 5.15625 15.625 5.15625H0.625V3.90625C0.625 3.3893 1.04555 2.96875 1.5625 2.96875H1.875V3.59375C1.875 4.1107 2.29555 4.53125 2.8125 4.53125C3.32945 4.53125 3.75 4.1107 3.75 3.59375V2.96875H16.25V3.59375C16.25 4.1107 16.6705 4.53125 17.1875 4.53125C17.7045 4.53125 18.125 4.1107 18.125 3.59375V2.96875H18.4375C18.9545 2.96875 19.375 3.3893 19.375 3.90625V5.15625H18.75C18.5774 5.15625 18.4375 5.29617 18.4375 5.46875C18.4375 5.64133 18.5774 5.78125 18.75 5.78125H19.375V17.6562C19.375 18.1732 18.9545 18.5938 18.4375 18.5938Z" fill="black"/>
<path d="M17.5 5.15625H16.875C16.7024 5.15625 16.5625 5.29617 16.5625 5.46875C16.5625 5.64133 16.7024 5.78125 16.875 5.78125H17.5C17.6726 5.78125 17.8125 5.64133 17.8125 5.46875C17.8125 5.29617 17.6726 5.15625 17.5 5.15625Z" fill="black"/>
<path d="M10.3125 7.96875H9.6875C9.51492 7.96875 9.375 8.10867 9.375 8.28125C9.375 8.45383 9.51492 8.59375 9.6875 8.59375H10.3125C10.4851 8.59375 10.625 8.45383 10.625 8.28125C10.625 8.10867 10.4851 7.96875 10.3125 7.96875Z" fill="black"/>
<path d="M10.3125 9.53125H9.6875C9.51492 9.53125 9.375 9.67117 9.375 9.84375C9.375 10.0163 9.51492 10.1562 9.6875 10.1562H10.3125C10.4851 10.1562 10.625 10.0163 10.625 9.84375C10.625 9.67117 10.4851 9.53125 10.3125 9.53125Z" fill="black"/>
<path d="M10.3125 11.0938H9.6875C9.51492 11.0938 9.375 11.2337 9.375 11.4062C9.375 11.5788 9.51492 11.7188 9.6875 11.7188H10.3125C10.4851 11.7188 10.625 11.5788 10.625 11.4062C10.625 11.2337 10.4851 11.0938 10.3125 11.0938Z" fill="black"/>
<path d="M10.3125 12.6562H9.6875C9.51492 12.6562 9.375 12.7962 9.375 12.9688C9.375 13.1413 9.51492 13.2812 9.6875 13.2812H10.3125C10.4851 13.2812 10.625 13.1413 10.625 12.9688C10.625 12.7962 10.4851 12.6562 10.3125 12.6562Z" fill="black"/>
<path d="M10.3125 14.2188H9.6875C9.51492 14.2188 9.375 14.3587 9.375 14.5312C9.375 14.7038 9.51492 14.8438 9.6875 14.8438H10.3125C10.4851 14.8438 10.625 14.7038 10.625 14.5312C10.625 14.3587 10.4851 14.2188 10.3125 14.2188Z" fill="black"/>
<path d="M10.3125 15.7812H9.6875C9.51492 15.7812 9.375 15.9212 9.375 16.0938C9.375 16.2663 9.51492 16.4062 9.6875 16.4062H10.3125C10.4851 16.4062 10.625 16.2663 10.625 16.0938C10.625 15.9212 10.4851 15.7812 10.3125 15.7812Z" fill="black"/>
<path d="M12.5 7.96875H11.875C11.7024 7.96875 11.5625 8.10867 11.5625 8.28125C11.5625 8.45383 11.7024 8.59375 11.875 8.59375H12.5C12.6726 8.59375 12.8125 8.45383 12.8125 8.28125C12.8125 8.10867 12.6726 7.96875 12.5 7.96875Z" fill="black"/>
<path d="M12.5 9.53125H11.875C11.7024 9.53125 11.5625 9.67117 11.5625 9.84375C11.5625 10.0163 11.7024 10.1562 11.875 10.1562H12.5C12.6726 10.1562 12.8125 10.0163 12.8125 9.84375C12.8125 9.67117 12.6726 9.53125 12.5 9.53125Z" fill="black"/>
<path d="M12.5 11.0938H11.875C11.7024 11.0938 11.5625 11.2337 11.5625 11.4062C11.5625 11.5788 11.7024 11.7188 11.875 11.7188H12.5C12.6726 11.7188 12.8125 11.5788 12.8125 11.4062C12.8125 11.2337 12.6726 11.0938 12.5 11.0938Z" fill="black"/>
<path d="M12.5 12.6562H11.875C11.7024 12.6562 11.5625 12.7962 11.5625 12.9688C11.5625 13.1413 11.7024 13.2812 11.875 13.2812H12.5C12.6726 13.2812 12.8125 13.1413 12.8125 12.9688C12.8125 12.7962 12.6726 12.6562 12.5 12.6562Z" fill="black"/>
<path d="M12.5 14.2188H11.875C11.7024 14.2188 11.5625 14.3587 11.5625 14.5312C11.5625 14.7038 11.7024 14.8438 11.875 14.8438H12.5C12.6726 14.8438 12.8125 14.7038 12.8125 14.5312C12.8125 14.3587 12.6726 14.2188 12.5 14.2188Z" fill="black"/>
<path d="M12.5 15.7812H11.875C11.7024 15.7812 11.5625 15.9212 11.5625 16.0938C11.5625 16.2663 11.7024 16.4062 11.875 16.4062H12.5C12.6726 16.4062 12.8125 16.2663 12.8125 16.0938C12.8125 15.9212 12.6726 15.7812 12.5 15.7812Z" fill="black"/>
<path d="M8.125 7.96875H7.5C7.32742 7.96875 7.1875 8.10867 7.1875 8.28125C7.1875 8.45383 7.32742 8.59375 7.5 8.59375H8.125C8.29758 8.59375 8.4375 8.45383 8.4375 8.28125C8.4375 8.10867 8.29758 7.96875 8.125 7.96875Z" fill="black"/>
<path d="M8.125 9.53125H7.5C7.32742 9.53125 7.1875 9.67117 7.1875 9.84375C7.1875 10.0163 7.32742 10.1562 7.5 10.1562H8.125C8.29758 10.1562 8.4375 10.0163 8.4375 9.84375C8.4375 9.67117 8.29758 9.53125 8.125 9.53125Z" fill="black"/>
<path d="M8.125 11.0938H7.5C7.32742 11.0938 7.1875 11.2337 7.1875 11.4062C7.1875 11.5788 7.32742 11.7188 7.5 11.7188H8.125C8.29758 11.7188 8.4375 11.5788 8.4375 11.4062C8.4375 11.2337 8.29758 11.0938 8.125 11.0938Z" fill="black"/>
<path d="M8.125 12.6562H7.5C7.32742 12.6562 7.1875 12.7962 7.1875 12.9688C7.1875 13.1413 7.32742 13.2812 7.5 13.2812H8.125C8.29758 13.2812 8.4375 13.1413 8.4375 12.9688C8.4375 12.7962 8.29758 12.6562 8.125 12.6562Z" fill="black"/>
<path d="M8.125 14.2188H7.5C7.32742 14.2188 7.1875 14.3587 7.1875 14.5312C7.1875 14.7038 7.32742 14.8438 7.5 14.8438H8.125C8.29758 14.8438 8.4375 14.7038 8.4375 14.5312C8.4375 14.3587 8.29758 14.2188 8.125 14.2188Z" fill="black"/>
<path d="M8.125 15.7812H7.5C7.32742 15.7812 7.1875 15.9212 7.1875 16.0938C7.1875 16.2663 7.32742 16.4062 7.5 16.4062H8.125C8.29758 16.4062 8.4375 16.2663 8.4375 16.0938C8.4375 15.9212 8.29758 15.7812 8.125 15.7812Z" fill="black"/>
<path d="M5.9375 7.96875H5.3125C5.13992 7.96875 5 8.10867 5 8.28125C5 8.45383 5.13992 8.59375 5.3125 8.59375H5.9375C6.11008 8.59375 6.25 8.45383 6.25 8.28125C6.25 8.10867 6.11008 7.96875 5.9375 7.96875Z" fill="black"/>
<path d="M5.9375 9.53125H5.3125C5.13992 9.53125 5 9.67117 5 9.84375C5 10.0163 5.13992 10.1562 5.3125 10.1562H5.9375C6.11008 10.1562 6.25 10.0163 6.25 9.84375C6.25 9.67117 6.11008 9.53125 5.9375 9.53125Z" fill="black"/>
<path d="M5.9375 11.0938H5.3125C5.13992 11.0938 5 11.2337 5 11.4062C5 11.5788 5.13992 11.7188 5.3125 11.7188H5.9375C6.11008 11.7188 6.25 11.5788 6.25 11.4062C6.25 11.2337 6.11008 11.0938 5.9375 11.0938Z" fill="black"/>
<path d="M5.9375 12.6562H5.3125C5.13992 12.6562 5 12.7962 5 12.9688C5 13.1413 5.13992 13.2812 5.3125 13.2812H5.9375C6.11008 13.2812 6.25 13.1413 6.25 12.9688C6.25 12.7962 6.11008 12.6562 5.9375 12.6562Z" fill="black"/>
<path d="M5.9375 14.2188H5.3125C5.13992 14.2188 5 14.3587 5 14.5312C5 14.7038 5.13992 14.8438 5.3125 14.8438H5.9375C6.11008 14.8438 6.25 14.7038 6.25 14.5312C6.25 14.3587 6.11008 14.2188 5.9375 14.2188Z" fill="black"/>
<path d="M5.9375 15.7812H5.3125C5.13992 15.7812 5 15.9212 5 16.0938C5 16.2663 5.13992 16.4062 5.3125 16.4062H5.9375C6.11008 16.4062 6.25 16.2663 6.25 16.0938C6.25 15.9212 6.11008 15.7812 5.9375 15.7812Z" fill="black"/>
<path d="M14.6875 7.96875H14.0625C13.8899 7.96875 13.75 8.10867 13.75 8.28125C13.75 8.45383 13.8899 8.59375 14.0625 8.59375H14.6875C14.8601 8.59375 15 8.45383 15 8.28125C15 8.10867 14.8601 7.96875 14.6875 7.96875Z" fill="black"/>
<path d="M14.6875 9.53125H14.0625C13.8899 9.53125 13.75 9.67117 13.75 9.84375C13.75 10.0163 13.8899 10.1562 14.0625 10.1562H14.6875C14.8601 10.1562 15 10.0163 15 9.84375C15 9.67117 14.8601 9.53125 14.6875 9.53125Z" fill="black"/>
<path d="M14.6875 11.0938H14.0625C13.8899 11.0938 13.75 11.2337 13.75 11.4062C13.75 11.5788 13.8899 11.7188 14.0625 11.7188H14.6875C14.8601 11.7188 15 11.5788 15 11.4062C15 11.2337 14.8601 11.0938 14.6875 11.0938Z" fill="black"/>
<path d="M14.6875 12.6562H14.0625C13.8899 12.6562 13.75 12.7962 13.75 12.9688C13.75 13.1413 13.8899 13.2812 14.0625 13.2812H14.6875C14.8601 13.2812 15 13.1413 15 12.9688C15 12.7962 14.8601 12.6562 14.6875 12.6562Z" fill="black"/>
<path d="M14.6875 14.2188H14.0625C13.8899 14.2188 13.75 14.3587 13.75 14.5312C13.75 14.7038 13.8899 14.8438 14.0625 14.8438H14.6875C14.8601 14.8438 15 14.7038 15 14.5312C15 14.3587 14.8601 14.2188 14.6875 14.2188Z" fill="black"/>
<path d="M14.6875 15.7812H14.0625C13.8899 15.7812 13.75 15.9212 13.75 16.0938C13.75 16.2663 13.8899 16.4062 14.0625 16.4062H14.6875C14.8601 16.4062 15 16.2663 15 16.0938C15 15.9212 14.8601 15.7812 14.6875 15.7812Z" fill="black"/>
<path d="M16.875 7.96875H16.25C16.0774 7.96875 15.9375 8.10867 15.9375 8.28125C15.9375 8.45383 16.0774 8.59375 16.25 8.59375H16.875C17.0476 8.59375 17.1875 8.45383 17.1875 8.28125C17.1875 8.10867 17.0476 7.96875 16.875 7.96875Z" fill="black"/>
<path d="M16.875 9.53125H16.25C16.0774 9.53125 15.9375 9.67117 15.9375 9.84375C15.9375 10.0163 16.0774 10.1562 16.25 10.1562H16.875C17.0476 10.1562 17.1875 10.0163 17.1875 9.84375C17.1875 9.67117 17.0476 9.53125 16.875 9.53125Z" fill="black"/>
<path d="M16.875 11.0938H16.25C16.0774 11.0938 15.9375 11.2337 15.9375 11.4062C15.9375 11.5788 16.0774 11.7188 16.25 11.7188H16.875C17.0476 11.7188 17.1875 11.5788 17.1875 11.4062C17.1875 11.2337 17.0476 11.0938 16.875 11.0938Z" fill="black"/>
<path d="M16.875 12.6562H16.25C16.0774 12.6562 15.9375 12.7962 15.9375 12.9688C15.9375 13.1413 16.0774 13.2812 16.25 13.2812H16.875C17.0476 13.2812 17.1875 13.1413 17.1875 12.9688C17.1875 12.7962 17.0476 12.6562 16.875 12.6562Z" fill="black"/>
<path d="M16.875 14.2188H16.25C16.0774 14.2188 15.9375 14.3587 15.9375 14.5312C15.9375 14.7038 16.0774 14.8438 16.25 14.8438H16.875C17.0476 14.8438 17.1875 14.7038 17.1875 14.5312C17.1875 14.3587 17.0476 14.2188 16.875 14.2188Z" fill="black"/>
<path d="M16.875 15.7812H16.25C16.0774 15.7812 15.9375 15.9212 15.9375 16.0938C15.9375 16.2663 16.0774 16.4062 16.25 16.4062H16.875C17.0476 16.4062 17.1875 16.2663 17.1875 16.0938C17.1875 15.9212 17.0476 15.7812 16.875 15.7812Z" fill="black"/>
<path d="M3.75 7.96875H3.125C2.95242 7.96875 2.8125 8.10867 2.8125 8.28125C2.8125 8.45383 2.95242 8.59375 3.125 8.59375H3.75C3.92258 8.59375 4.0625 8.45383 4.0625 8.28125C4.0625 8.10867 3.92258 7.96875 3.75 7.96875Z" fill="black"/>
<path d="M3.75 9.53125H3.125C2.95242 9.53125 2.8125 9.67117 2.8125 9.84375C2.8125 10.0163 2.95242 10.1562 3.125 10.1562H3.75C3.92258 10.1562 4.0625 10.0163 4.0625 9.84375C4.0625 9.67117 3.92258 9.53125 3.75 9.53125Z" fill="black"/>
<path d="M3.75 11.0938H3.125C2.95242 11.0938 2.8125 11.2337 2.8125 11.4062C2.8125 11.5788 2.95242 11.7188 3.125 11.7188H3.75C3.92258 11.7188 4.0625 11.5788 4.0625 11.4062C4.0625 11.2337 3.92258 11.0938 3.75 11.0938Z" fill="black"/>
<path d="M3.75 12.6562H3.125C2.95242 12.6562 2.8125 12.7962 2.8125 12.9688C2.8125 13.1413 2.95242 13.2812 3.125 13.2812H3.75C3.92258 13.2812 4.0625 13.1413 4.0625 12.9688C4.0625 12.7962 3.92258 12.6562 3.75 12.6562Z" fill="black"/>
<path d="M3.75 14.2188H3.125C2.95242 14.2188 2.8125 14.3587 2.8125 14.5312C2.8125 14.7038 2.95242 14.8438 3.125 14.8438H3.75C3.92258 14.8438 4.0625 14.7038 4.0625 14.5312C4.0625 14.3587 3.92258 14.2188 3.75 14.2188Z" fill="black"/>
<path d="M3.75 15.7812H3.125C2.95242 15.7812 2.8125 15.9212 2.8125 16.0938C2.8125 16.2663 2.95242 16.4062 3.125 16.4062H3.75C3.92258 16.4062 4.0625 16.2663 4.0625 16.0938C4.0625 15.9212 3.92258 15.7812 3.75 15.7812Z" fill="black"/>
</svg>
