<svg width="97" height="74" viewBox="0 0 97 74" fill="none" xmlns="http://www.w3.org/2000/svg">
<path d="M16.4314 20.6127V2.49425H31.4059V13.884L32.2162 13.5196V2.0899C32.2162 1.86593 32.0354 1.68555 31.811 1.68555H16.0262C15.803 1.68555 15.6211 1.86593 15.6211 2.0899V20.9771L16.4314 20.6127Z" fill="black"/>
<path d="M96.8508 27.9442L62.6466 0.0909891C62.5265 -0.00586204 62.364 -0.0276535 62.2233 0.0365104L32.2161 13.5194L31.4058 13.8838L16.4313 20.6125L15.621 20.9769L0.238961 27.8885C0.093401 27.9539 0 28.0979 0 28.2577V29.0108C0 29.2347 0.180737 29.4151 0.405142 29.4151H9.23457V28.6064H0.810284V28.5204L62.3276 0.876694L96.1897 28.4502V28.6064H91.3826V29.4151H96.5949C96.8181 29.4151 97 29.2347 97 29.0108V28.2577C97 28.1367 96.9454 28.0217 96.8508 27.9442Z" fill="black"/>
<path d="M91.3826 28.6063V28.2891C91.3826 28.1681 91.328 28.0519 91.2346 27.9756L62.3107 4.4238C62.1906 4.32694 62.028 4.30515 61.8873 4.36811L9.47479 27.9199C9.32923 27.9853 9.23462 28.1305 9.23462 28.2891V68.7197H10.0449V28.5506L61.9916 5.20708L90.5723 28.4804V68.7197H91.3826V28.6063Z" fill="black"/>
<path d="M80.7228 26.8138V59.3231H69.9526V26.8138H80.7228ZM69.1423 59.7275C69.1423 59.9515 69.3243 60.1331 69.5475 60.1331H81.128C81.3512 60.1331 81.5331 59.9515 81.5331 59.7275V26.4083C81.5331 26.1855 81.3512 26.0039 81.128 26.0039H69.5475C69.3243 26.0039 69.1423 26.1855 69.1423 26.4083V59.7275Z" fill="black"/>
<path d="M79.3969 56.9721H71.2783V29.1637H79.3969V56.9721ZM70.468 28.7593V57.3777C70.468 57.6004 70.6488 57.782 70.8732 57.782H79.8021C80.0252 57.782 80.2072 57.6004 80.2072 57.3777V28.7593C80.2072 28.5366 80.0252 28.355 79.8021 28.355H70.8732C70.6488 28.355 70.468 28.5366 70.468 28.7593Z" fill="black"/>
<path d="M64.5693 26.8138V59.3231H53.8003V26.8138H64.5693ZM52.99 59.7275C52.99 59.9515 53.1719 60.1331 53.3951 60.1331H64.9744C65.1976 60.1331 65.3796 59.9515 65.3796 59.7275V26.4083C65.3796 26.1855 65.1976 26.0039 64.9744 26.0039H53.3951C53.1719 26.0039 52.99 26.1855 52.99 26.4083V59.7275Z" fill="black"/>
<path d="M63.2446 56.9719H55.126V29.1647H63.2446V56.9719ZM54.3157 28.7603V57.3774C54.3157 57.6002 54.4964 57.7818 54.7208 57.7818H63.6497C63.8741 57.7818 64.0549 57.6002 64.0549 57.3774V28.7603C64.0549 28.5363 63.8741 28.356 63.6497 28.356H54.7208C54.4964 28.356 54.3157 28.5363 54.3157 28.7603Z" fill="black"/>
<path d="M42.9645 33.2759H22.5934C22.3702 33.2759 22.1882 33.4575 22.1882 33.6814V68.7198H22.9985V34.0858H42.5594V68.7198H43.3696V33.6814C43.3696 33.4575 43.1889 33.2759 42.9645 33.2759Z" fill="black"/>
<path d="M40.8442 35.9321H24.7162C24.4918 35.9321 24.311 36.1125 24.311 36.3365V68.7199H25.1213V36.7408H40.4391V68.7199H41.2494V36.3365C41.2494 36.1125 41.0674 35.9321 40.8442 35.9321Z" fill="black"/>
<path d="M27.9549 54.2101C27.1374 54.2101 26.4739 53.5467 26.4739 52.7307C26.4739 51.9148 27.1374 51.2501 27.9549 51.2501C28.7725 51.2501 29.4372 51.9148 29.4372 52.7307C29.4372 53.5467 28.7725 54.2101 27.9549 54.2101ZM27.9549 50.4414C26.691 50.4414 25.6636 51.468 25.6636 52.7307C25.6636 53.9922 26.691 55.0188 27.9549 55.0188C29.2201 55.0188 30.2475 53.9922 30.2475 52.7307C30.2475 51.468 29.2201 50.4414 27.9549 50.4414Z" fill="black"/>
<path d="M91.8847 72.8529H5.11393C4.1969 72.8529 3.45091 72.1071 3.45091 71.1906C3.45091 70.2742 4.1969 69.5284 5.11393 69.5284H91.8847C92.8029 69.5284 93.5489 70.2742 93.5489 71.1906C93.5489 72.1071 92.8029 72.8529 91.8847 72.8529ZM90.5722 68.7197H5.11393C3.75052 68.7197 2.64062 69.8287 2.64062 71.1906C2.64062 72.5526 3.75052 73.6616 5.11393 73.6616H91.8847C93.2493 73.6616 94.3592 72.5526 94.3592 71.1906C94.3592 69.8287 93.2493 68.7197 91.8847 68.7197H90.5722Z" fill="black"/>
</svg>
