<svg width="43" height="75" viewBox="0 0 43 75" fill="none" xmlns="http://www.w3.org/2000/svg">
<path d="M25.7991 8.29887C25.8129 10.3037 23.8686 11.9404 21.4561 11.9519C19.0423 11.9643 17.0742 10.3484 17.0592 8.34359C17.0454 6.33668 18.9897 4.70101 21.4022 4.68957C23.816 4.67605 25.7841 6.29301 25.7991 8.29887ZM13.3246 33.8614L13.5587 65.7316L21.9155 74.2854L30.146 65.6474L26.4264 62.4021L30.1021 59.8617L26.3863 57.1124L30.0621 54.2829L27.5794 51.7728L30.022 48.7853L25.6151 44.4689L29.9669 41.3878L29.9118 33.7761C37.3097 31.0705 42.4553 24.9073 42.4015 17.7625C42.3313 8.16889 32.9166 0.438677 21.3709 0.496909C9.82781 0.55618 0.526963 8.38102 0.597073 17.9757C0.650908 25.1205 5.88538 31.2296 13.3246 33.8614Z" fill="white"/>
<path d="M25.7992 8.29901H25.2021V8.32085C25.2021 9.18392 24.7839 9.96172 24.1053 10.5305C23.4255 11.0983 22.4916 11.4508 21.4524 11.456H21.4562H21.4286C20.3908 11.4549 19.4543 11.1087 18.7707 10.5451C18.0859 9.9794 17.6627 9.20368 17.6565 8.3406V8.32085C17.6565 7.45778 18.0734 6.67893 18.7519 6.11118C19.433 5.54342 20.367 5.19091 21.4061 5.18571H21.4324C23.5031 5.18571 25.1895 6.57807 25.2021 8.30109V8.29901H25.7992L26.3952 8.29485C26.3789 6.02487 24.1604 4.1937 21.4324 4.19266H21.3961H21.3998C20.0339 4.1989 18.7958 4.66579 17.9056 5.41136C17.013 6.15693 16.4608 7.18742 16.4621 8.32085V8.34684C16.4709 9.48028 17.0305 10.5087 17.9281 11.2491C18.8258 11.9894 20.0665 12.449 21.4286 12.449H21.4599C22.8246 12.4418 24.0615 11.9759 24.9529 11.2303C25.8443 10.4848 26.3964 9.45428 26.3952 8.32085V8.29485L25.7992 8.29901ZM13.3247 33.8615L12.7275 33.8636L12.9616 65.7349C12.9616 65.8472 13.0092 65.9574 13.0943 66.0458L21.4524 74.5985C21.5664 74.7161 21.7379 74.7836 21.9207 74.7826C22.1009 74.7805 22.2712 74.7119 22.3839 74.5944L30.6143 65.9554C30.7983 65.7619 30.7833 65.4843 30.578 65.3055L27.3004 62.4438L30.4841 60.2435C30.6193 60.1499 30.6969 60.0158 30.6994 59.8702C30.7032 59.7246 30.6306 59.5873 30.5004 59.4917L27.2753 57.1052L30.4678 54.647C30.6994 54.4682 30.7245 54.1697 30.5242 53.968L28.3245 51.7448L30.5167 49.0641C30.6669 48.88 30.6519 48.6346 30.4778 48.4641L26.4578 44.5262L30.3552 41.7665C30.4904 41.6697 30.5655 41.5314 30.5642 41.3848L30.5091 33.7732L29.912 33.7763L30.1511 34.2307C33.937 32.8456 37.1483 30.5829 39.4144 27.7514C41.6792 24.9209 43 21.5217 43 17.8718C43 17.8344 42.9987 17.798 42.9987 17.7616V17.7595C42.9261 7.92883 33.316 0.00103978 21.5025 0C21.4574 0 21.4124 6.65661e-08 21.3648 0.00103985H21.3673C9.53872 0.061351 0 8.04945 0 17.8687C0 17.9051 0 17.9415 0 17.981V17.9789C0.0275431 21.6517 1.38843 25.0624 3.69705 27.8897C6.00693 30.7171 9.26454 32.9642 13.0905 34.317L13.3247 33.8615L12.7275 33.8636L13.3247 33.8615L13.5575 33.404C9.94561 32.126 6.86703 30.0037 4.68485 27.3324C2.50518 24.661 1.22067 21.4447 1.19437 17.9727V17.9717C1.19437 17.9384 1.19437 17.903 1.19437 17.8687C1.19437 8.59537 10.2035 1.05024 21.3748 0.994093H21.3786C21.4174 0.993053 21.4587 0.993053 21.5025 0.993053C32.6588 0.993053 41.7368 8.48098 41.8044 17.7658V17.7647C41.8044 17.8011 41.8056 17.8375 41.8056 17.8718C41.8044 21.321 40.5599 24.5279 38.4191 27.2024C36.2807 29.8758 33.2447 32.0158 29.6703 33.3219C29.4525 33.4019 29.3123 33.5818 29.3148 33.7794L29.3686 41.1602L25.2284 44.0915C24.978 44.2694 24.9479 44.5813 25.1607 44.7903L29.2735 48.8187L27.085 51.4942C26.9373 51.6762 26.9498 51.9185 27.1176 52.088L29.2447 54.2363L25.9808 56.7475C25.8568 56.8432 25.788 56.9773 25.7892 57.1167C25.7917 57.257 25.8644 57.3901 25.9895 57.4827L29.1871 59.8483L26.0446 62.0195C25.9169 62.1079 25.8393 62.2358 25.8305 62.3741C25.8205 62.5114 25.8794 62.6445 25.9933 62.7443L29.3548 65.6777L21.9094 73.4932L14.1535 65.555L13.9206 33.8584C13.9193 33.6598 13.7754 33.481 13.5575 33.404L13.3247 33.8615Z" fill="#060606"/>
<path d="M20.675 73.0224L21.9157 74.2858L23.1389 73.0088L22.876 37.3608L20.4121 37.3733L20.675 73.0224Z" fill="white"/>
<path d="M20.675 73.0223L20.2118 73.3353L21.4538 74.5997C21.5677 74.7162 21.738 74.7838 21.9195 74.7827C22.101 74.7817 22.2701 74.7131 22.3827 74.5945L23.6059 73.3176C23.6898 73.2303 23.7374 73.118 23.7361 73.0056L23.4732 37.3576C23.4694 37.0842 23.2015 36.8627 22.8722 36.8648L20.4084 36.8772C20.0779 36.8783 19.8137 37.1018 19.8149 37.3764L20.0779 73.0244C20.0779 73.1367 20.1254 73.249 20.2118 73.3353L20.675 73.0223L21.2722 73.0192L21.0131 37.8661L22.2826 37.8599L22.5405 72.8372L21.9095 73.4954L21.137 72.7083L20.675 73.0223L21.2722 73.0192L20.675 73.0223Z" fill="#060606"/>
</svg>
