<svg width="158" height="50" viewBox="0 0 158 50" fill="none" xmlns="http://www.w3.org/2000/svg">
<path d="M3.3516 14.8913C0.723743 17.6211 4.87648 23.5073 1.77375 25.6738C-0.118156 26.9848 -0.118155 29.7684 0.091846 32.0963C0.328334 34.6108 0.723743 37.4462 2.74619 38.8918C3.71863 39.5877 4.87648 39.828 6.00594 40.0683C9.31867 40.7642 12.6295 41.487 15.9422 42.1829C17.3082 42.477 18.782 42.7711 20.095 42.2636C21.3834 41.7811 22.4088 40.2029 21.8034 38.9188C23.2753 45.8738 31.3461 50.5566 37.9697 48.2825C43.6473 46.3294 45.8022 38.8649 44.4362 32.9249C44.9357 35.6008 45.4352 38.2767 45.9346 40.9526C46.0916 41.6735 46.2487 42.4501 46.7481 42.9576C47.4065 43.6535 48.4584 43.7073 49.4044 43.7073C71.5094 43.9745 93.6163 44.2417 115.723 44.4839C118.115 44.5109 119.218 41.4332 119.218 38.9995C119.244 36.537 119.114 33.6208 121.085 32.229C117.931 38.169 121.295 46.6235 127.604 48.6574C133.912 50.6912 141.43 45.7412 142.193 39.0245C141.824 41.4063 143.952 43.5747 146.266 44.0822C148.553 44.5897 150.918 43.8957 153.179 43.1998C155.519 42.477 158.41 40.8988 157.937 38.4632C157.332 35.4124 158.357 32.2021 157.858 29.1263C156.832 22.8383 150.105 19.4396 144.085 17.7018C135.963 15.3469 127.551 14.0897 119.114 13.982C109.86 13.8475 102.238 6.91934 93.6428 3.38607C79.3703 -2.52516 63.2304 1.19267 47.8265 0.763983C46.5646 0.738992 45.2762 0.685167 44.1732 1.21958C42.2284 2.15576 40.1775 2.82474 38.1267 3.4668C27.3239 6.86552 16.5476 10.2623 5.74297 13.661C4.87648 13.9282 3.9816 14.2223 3.3516 14.8913ZM121.427 30.8122C123.319 28.0825 126.342 26.237 129.6 25.8352C132.834 25.4066 136.226 26.4504 138.723 28.6169C138.591 28.8841 138.354 29.0994 138.065 29.1801C137.488 28.5631 136.672 28.1901 135.804 28.1363C137.565 29.2589 139.59 30.8641 139.274 32.9518C139.747 32.6846 140.222 33.2997 140.405 33.8072C141.324 36.537 141.141 39.6416 139.853 42.2098C139.274 43.3594 137.698 43.6535 136.515 43.146C135.331 42.6635 134.517 41.5408 133.886 40.4163C133.36 39.4801 132.52 38.3036 131.494 38.6515C133.439 40.4163 134.701 42.9307 134.937 45.5528C135.49 45.3663 135.804 44.6704 135.594 44.1091C136.04 43.8957 136.54 43.6804 137.039 43.8419C137.512 44.0014 137.775 44.7242 137.382 45.0184C135.28 46.6235 132.624 47.4271 129.996 47.2387C129.26 47.1848 128.471 47.0253 127.945 46.5178C126.842 45.447 127.368 43.5478 128.181 42.2636C128.997 40.9526 130.1 39.6146 129.916 38.0883C128.84 40.3624 127.052 42.2636 124.844 43.3863C124.555 43.5478 124.212 43.7073 123.898 43.6535C123.346 43.5997 122.977 43.146 122.687 42.6904C121.085 40.0414 120.769 36.6177 121.874 33.7284C122.057 33.2997 122.4 32.7922 122.846 32.9249C123.003 33.6208 123.319 34.2359 123.766 34.7703C122.899 34.9587 122.11 35.547 121.715 36.3774C123.162 35.9756 124.685 35.7603 126.184 35.7872C125.211 34.9049 124.292 33.9956 123.423 33.0325C123.213 32.7922 122.977 32.4962 122.95 32.1752C122.95 31.881 123.136 31.6138 123.293 31.4004C124.186 30.1432 125.264 29.0187 126.447 28.0556C124.475 28.7245 122.714 30.0894 121.584 31.8541C121.138 31.9079 121.164 31.1851 121.427 30.8122ZM45.5127 1.5137C47.0641 4.13578 50.8763 3.68211 53.8466 3.06503C73.4297 -1.08147 94.5358 3.04004 111.202 14.2762C113.909 16.0966 117.379 15.9352 120.585 15.9352C129.733 15.8813 138.88 17.4865 147.475 20.6449C150.078 21.608 152.759 22.8114 154.388 25.0855C157.332 29.1801 155.729 34.9049 156.307 39.9626C152.339 41.4063 148.185 42.2636 143.952 42.477C146.319 35.6815 142.376 27.3328 135.7 24.951C129.05 22.5442 120.822 26.5311 118.457 33.3266C117.405 36.3774 117.432 39.6665 117.089 42.8788C94.9823 41.9945 72.8508 41.6735 50.7438 41.8619C48.9825 41.8888 46.5911 41.2198 46.8011 39.4532C47.696 31.5331 40.52 23.6938 32.6856 24.0686C24.8531 24.4704 18.4395 32.9787 20.1215 40.7642C14.3644 41.3255 8.4238 39.159 4.29755 35.0125C2.95619 33.6746 1.74726 31.9349 1.8797 30.0356C1.93267 29.2051 2.22024 28.4035 2.56267 27.6538C3.27214 26.1025 4.24458 24.6049 5.68999 23.7207C7.11082 22.8383 9.10867 22.7307 10.3952 23.8283C9.00272 21.929 7.26784 20.297 5.29648 19.0397C5.05999 19.8683 5.47999 20.8583 6.24243 21.2601C5.53297 22.0617 4.03458 21.4196 3.74512 20.3758C3.43106 19.307 3.9816 18.1824 4.66647 17.3538C6.55838 15.1066 9.52867 14.1435 12.3154 13.3131C23.1977 10.0489 34.0534 6.81169 44.9357 3.54754C45.1192 2.85165 45.3292 2.18268 45.5127 1.5137ZM40.5975 30.1951C41.5965 31.1602 41.3865 32.9518 40.4405 33.9956C39.4946 35.0395 38.0756 35.4662 36.7078 35.7084C35.7618 35.868 34.6059 36.1083 34.3429 37.0464C37.1543 36.6446 40.047 35.1721 42.6749 36.2967C42.3589 35.4662 41.5435 34.878 40.677 34.8241C41.1765 34.1283 41.6494 33.4343 42.1489 32.7384C43.4108 35.3067 43.6473 38.3824 42.7789 41.1121C42.5424 41.808 42.2549 42.5039 41.6759 42.9576C40.783 43.6266 39.4946 43.4939 38.5486 42.9307C37.6008 42.3425 36.8913 41.4332 36.2348 40.5239C35.5783 39.6416 34.9199 38.7573 34.2634 37.848C34.1575 39.2398 35.1299 40.4432 35.9718 41.5408C36.8402 42.6097 37.6537 44.0014 37.2337 45.3125C36.9178 46.3025 35.9189 46.9715 34.9199 47.1599C33.921 47.3732 32.871 47.1848 31.8721 46.9984C29.8477 46.6235 27.6134 46.0353 26.5085 44.2686C27.1934 43.8688 28.0069 43.7611 28.7694 43.9207C28.7429 44.5647 29.0588 45.2067 29.6112 45.5278C29.7153 43.4401 30.5837 41.4332 32.0026 39.9357C32.2391 39.6665 32.5286 39.3993 32.6345 39.0245C32.7121 38.6785 32.5551 38.2229 32.1861 38.169C31.1607 40.4432 29.3483 42.3694 27.1139 43.4401C26.7715 43.5997 26.431 43.7611 26.062 43.6535C25.7196 43.5747 25.4831 43.2536 25.2731 42.9576C23.4853 40.3355 23.0123 36.858 24.0377 33.8341C24.1966 33.3805 24.5372 32.8172 25.0101 32.9518C25.3261 33.6477 25.642 34.3166 25.9315 35.0125C25.0366 34.878 24.0907 35.547 23.9072 36.4562C25.6155 35.7084 27.6134 35.6815 29.3748 36.3774C29.9783 36.6177 30.5837 36.9656 31.2667 36.9926C31.9232 36.9926 32.6856 36.537 32.6856 35.868C30.1618 36.189 27.5075 35.2259 25.7726 33.3266C25.1955 32.7115 25.2201 31.6677 25.5891 30.891C25.9826 30.1163 26.641 29.5281 27.2974 28.9648C25.7991 29.5531 24.5107 30.7046 23.7747 32.1482C23.5382 32.0156 23.4077 31.7484 23.3812 31.4812C25.1691 28.2959 28.5594 26.0755 32.1596 25.7276C35.7618 25.3797 39.4946 26.8791 41.8859 29.6607C40.9665 29.8491 39.9675 29.3666 39.5721 28.5112C39.2316 29.1532 40.0716 29.6876 40.5975 30.1951ZM2.69511 35.0125C3.64106 35.8142 4.6135 36.6177 5.55945 37.4462C5.82243 37.6615 5.82243 38.0883 5.58594 38.3036C4.69107 38.169 3.74512 38.0345 3.03565 37.4462C2.35267 36.858 2.06321 35.6546 2.69511 35.0125ZM126.394 44.8319C126.394 45.2317 126.369 45.6066 126.369 45.9815C125.448 45.795 124.634 45.1529 124.239 44.2686C124.895 44.0014 125.607 43.815 126.316 43.7073C126.342 44.0822 126.369 44.457 126.42 44.8319H126.394ZM38.0227 45.0991C38.0756 44.7242 38.1532 44.3494 38.2062 43.9745C38.6527 43.8419 39.1786 43.6804 39.5986 43.8957C40.047 44.0822 40.2305 44.805 39.8351 45.0453C39.2846 45.3932 38.7321 45.7142 38.2062 46.0622C38.0491 45.7681 37.9962 45.4201 38.0756 45.126L38.0227 45.0991ZM21.8563 34.9587C21.8828 34.1552 22.0928 33.3805 22.4617 32.6846C22.9347 33.4343 22.8023 34.5031 22.1988 35.1452" fill="black"/>
<path d="M128.104 35.8677C127.814 35.8946 127.525 35.8946 127.262 35.9216C127.629 36.3233 128.024 36.7232 128.524 36.8847C129.023 37.0461 129.68 36.8308 129.863 36.3233C129.339 36.0292 128.707 35.8677 128.104 35.8408" fill="black"/>
<path d="M76.9241 21.8755C78.9219 23.1058 81.5782 23.1596 83.6006 22.0101C81.3928 22.2234 79.1584 22.1696 76.9241 21.8755Z" fill="black"/>
<path d="M148.92 25.4336C148.869 25.968 148.79 26.5043 148.947 27.0118C149.106 27.5213 149.552 27.9749 150.078 27.9211C151.128 27.8423 152.18 27.7346 153.259 27.6539C153.652 27.6001 153.785 27.0118 153.522 26.6908C153.285 26.3698 152.839 26.2621 152.443 26.2371C151.497 26.1026 150.551 26.1026 149.63 26.2102C149.579 25.8623 149.289 25.5412 148.92 25.4336Z" fill="black"/>
<path d="M136.33 37.3675C135.989 37.5002 135.726 37.7674 135.541 38.0615C135.041 38.865 135.068 40.0146 135.647 40.7912C136.226 41.5409 137.276 41.9158 138.197 41.6217C138.434 40.2568 139.117 38.9458 140.116 37.9558C139.3 37.6078 138.434 37.3925 137.539 37.2868C137.145 37.233 136.699 37.2061 136.33 37.3675Z" fill="black"/>
<path d="M26.8775 41.6737C27.8764 41.6218 28.8754 41.0855 29.2954 40.2031C29.7419 39.2938 29.5054 38.0616 28.6654 37.5272C27.4546 36.7775 25.9562 37.6618 24.5637 37.7944C25.1162 38.8921 25.6951 39.9897 26.2456 41.1124C26.3781 41.3796 26.5881 41.6737 26.8775 41.6737Z" fill="black"/>
<path d="M129.417 42.2886C129.023 43.2786 128.891 44.3762 129.023 45.4201C130.126 45.5277 131.258 45.5527 132.387 45.5008C132.597 45.5008 132.834 45.4739 133.019 45.3393C133.282 45.1259 133.282 44.7242 133.256 44.3493C133.097 42.5846 132.31 40.6315 130.626 40.1221C130.679 40.8987 131.074 41.6734 131.678 42.1559C130.942 42.3155 130.179 42.3693 129.417 42.2886Z" fill="black"/>
<path d="M33.1075 41.5946C33.6316 41.3255 33.9211 40.6835 33.817 40.0952C32.2656 41.0045 31.2402 42.7442 31.1873 44.5647C31.1873 44.805 31.2137 45.0722 31.3727 45.2586C31.5827 45.5009 31.9232 45.5278 32.2392 45.5278C33.2646 45.5278 34.29 45.5278 35.3154 45.5009C35.603 44.457 35.4989 43.2786 35.0789 42.2636C35.0259 42.1021 34.92 41.9426 34.7894 41.8619C34.5 41.7004 34.1575 41.8888 33.8435 41.9676C33.5275 42.0752 33.0546 41.9157 33.1075 41.5946Z" fill="black"/>
<path d="M132.887 31.9888C133.649 32.2829 134.281 32.8981 134.595 33.6747C133.806 33.8612 133.019 34.0765 132.23 34.2629C132.204 34.6647 132.571 35.0127 132.966 35.0665C133.36 35.1184 133.728 34.9857 134.096 34.8243C135.753 34.1822 137.618 33.0595 137.698 31.266C136.882 30.6778 136.04 30.0895 135.227 29.5013C135.017 29.3398 134.78 29.1802 134.542 29.2322C134.359 29.286 134.201 29.4205 134.069 29.5801C133.518 30.276 133.097 31.1064 132.887 31.9888Z" fill="black"/>
<path d="M123.476 41.0047C123.582 41.3257 123.766 41.6737 124.082 41.7813C124.292 41.8352 124.502 41.7544 124.685 41.6737C125.58 41.3257 126.394 40.8182 127.105 40.1762C127.629 39.6937 128.155 39.0516 128.155 38.3038C128.128 37.5541 127.315 36.8313 126.683 37.2062C127.315 37.5541 127.078 38.7575 126.369 38.8651C125.633 38.9728 125.081 37.929 125.527 37.3407C124.422 37.26 123.293 37.5003 122.32 38.0097C122.687 38.9997 123.083 40.0147 123.476 41.0047Z" fill="black"/>
<path d="M31.9498 33.9958C31.2403 34.2899 30.3473 34.0227 29.8743 33.4076C30.6614 33.4864 31.3727 32.7924 31.5033 32.0158C31.6357 31.2392 31.2933 30.4375 30.7673 29.8493C30.4514 29.5014 30.0314 29.2053 29.5849 29.313C29.4014 29.3668 29.216 29.4745 29.0854 29.6071C28.4535 30.0627 27.85 30.5164 27.2181 30.972C27.0876 31.1065 26.9305 31.2123 26.8511 31.3737C26.6676 31.7217 26.8246 32.1484 27.0346 32.4714C27.7441 33.594 29.006 34.263 30.2149 34.7705C30.6103 34.9589 31.0568 35.1185 31.4503 34.9858C31.8722 34.8782 32.1863 34.3707 31.9498 33.9958Z" fill="black"/>
<path d="M127.105 34.7702C126.552 34.0494 127.551 32.8171 128.34 33.2458C128.497 33.4861 128.55 33.834 128.471 34.1282C128.208 34.2896 127.945 34.4761 127.682 34.6376C127.945 35.172 128.76 35.0124 129.154 34.5838C130.312 33.3265 129.496 31.2658 128.55 29.8221C128.34 29.553 128.104 29.2319 127.761 29.18C127.472 29.1531 127.182 29.3665 126.919 29.553C126.289 30.0624 125.633 30.5699 125.001 31.0793C124.818 31.212 124.634 31.3734 124.555 31.5868C124.475 31.9348 124.685 32.2558 124.895 32.523C125.553 33.3535 126.289 34.1032 127.105 34.7702Z" fill="black"/>
<path d="M138.407 34.7975C139.09 34.4495 139.406 33.4864 139.09 32.7925C138.012 34.5034 136.12 35.6549 134.122 35.7875C133.256 35.8413 132.177 35.8144 131.731 36.5641C132.966 37.3927 134.542 36.5641 135.963 36.1624C137.488 35.7087 139.17 35.8144 140.642 36.4565C140.246 35.5472 139.38 34.8782 138.407 34.7975Z" fill="black"/>
<path d="M36.2614 29.5801C35.5254 30.5432 34.7365 31.5601 34.657 32.7655C34.5795 33.9958 35.5254 35.3337 36.7079 35.1453C37.3379 35.0665 37.8373 34.5571 38.2857 34.0765C39.0482 33.273 39.8352 32.3906 39.9146 31.2929C39.0217 30.6778 38.1533 30.0626 37.2603 29.4475C37.1014 29.3129 36.9179 29.2053 36.7079 29.2322C36.5244 29.2591 36.3919 29.4206 36.2614 29.5801ZM37.5233 33.594C37.2338 34.0496 36.5773 34.1822 36.1025 33.915C35.656 33.6478 35.4989 32.9788 35.7619 32.4963C36.4979 32.3099 37.3644 32.8443 37.5233 33.6209" fill="black"/>
<path d="M36.3654 38.7303C37.0767 40.149 38.3632 41.2198 39.8351 41.7004C40.0205 41.7542 40.204 41.7811 40.3876 41.7542C40.73 41.6465 40.887 41.2736 41.0195 40.9257C41.3865 39.9626 41.7554 38.9995 42.1224 38.0095C40.5711 37.2059 38.7586 36.9656 37.1013 37.3924C36.7078 37.5 36.2613 37.6884 36.1819 38.0883C36.1554 38.3305 36.2613 38.5439 36.3654 38.7303ZM38.4427 37.7672C39.2051 37.8211 39.4416 39.0783 38.7851 39.4531C38.1002 39.8011 37.2338 38.8649 37.6273 38.1959C37.8902 38.0614 38.1797 37.9018 38.4692 37.7403" fill="black"/>
<path d="M142.56 22.998C142.586 23.5613 143.139 23.963 143.691 24.0688C144.215 24.2033 144.794 24.1226 145.347 24.1764C146.136 24.2572 146.898 24.5782 147.685 24.7647C149.079 25.1126 150.604 24.9511 151.917 24.3629C147.685 23.1864 143.349 22.3829 138.986 21.9292C139.959 22.7577 141.298 23.1595 142.56 22.998Z" fill="black"/>
<path d="M151.077 37.7406C150.498 36.6987 151.628 35.5203 152.733 35.1185C153.836 34.7187 155.15 34.5034 155.756 33.4865C155.413 33.4595 155.071 33.4346 154.73 33.4076C153.259 33.2731 151.55 33.2462 150.578 34.3977C149.868 35.2262 149.789 36.4027 149.499 37.4734C149.236 38.5442 148.474 39.6937 147.397 39.6418C147.554 40.1493 148.29 40.1224 148.79 39.9898C150.288 39.588 151.864 39.1055 152.786 37.8752C153.469 36.9659 154.651 36.6987 155.729 36.5103C154.258 35.4127 151.864 36.0566 151.077 37.7406Z" fill="black"/>
<path d="M124.002 20.9663C117.825 20.403 111.595 20.1897 105.391 20.403C104.708 20.403 103.815 20.6183 103.762 21.3142C105.601 21.3661 107.442 21.42 109.283 21.4738C110.833 21.5007 112.41 21.5545 113.962 21.5814C117.326 21.6872 120.742 21.7679 124.002 20.9663Z" fill="black"/>
<path d="M37.3643 27.6809C34.6834 26.1027 31.1607 26.2373 28.6123 28.002C29.6112 27.4137 31.0037 27.8693 31.7396 28.7786C32.5021 29.6879 32.7386 30.9182 32.818 32.1235C32.8956 33.3 32.8445 34.5034 33.1075 35.6548C33.5804 35.6818 33.921 35.1454 33.921 34.6648C33.921 34.1823 33.711 33.7287 33.6315 33.2461C33.5275 32.6579 33.6069 32.0428 33.711 31.4545C33.921 30.4914 34.2105 29.5283 34.8159 28.7517C35.4194 28.002 36.4183 27.4945 37.3643 27.6809ZM33.081 29.661C32.8956 28.8593 32.4226 28.1096 31.7661 27.6271C32.7386 27.1196 33.974 27.1465 34.9199 27.654C34.3675 28.2692 33.7905 28.8843 33.238 29.5014" fill="black"/>
<path d="M130.968 35.601C131.178 35.4664 131.388 35.3607 131.572 35.2261C131.625 34.3707 131.651 33.4864 131.704 32.631C131.784 30.9989 131.994 29.1265 133.36 28.2692C134.122 27.7886 135.094 27.7617 135.989 27.9481C133.15 26.2372 129.417 26.1834 126.552 27.8424C128.155 27.333 129.916 28.5902 130.522 30.1954C131.125 31.8024 130.862 33.5672 130.442 35.2261C130.626 35.3607 130.811 35.4664 130.968 35.601ZM130.732 27.3599C131.388 27.1734 132.098 27.2792 132.703 27.6271C132.098 28.2423 131.598 28.9651 131.311 29.7686C130.942 28.9112 130.312 28.2173 129.549 27.7348C129.863 27.4675 130.285 27.3061 130.732 27.3061" fill="black"/>
<path d="M43.4108 19.5741C46.2751 19.7605 49.1414 19.8951 52.0057 20.0027C54.7395 20.1085 57.4733 20.243 60.2336 20.3507C57.5528 19.1992 54.5825 18.9858 51.6898 18.8243C36.9178 18.0496 22.0928 18.1285 7.3208 19.0915C15.4957 20.5641 23.8806 18.8782 32.1861 18.932C35.9188 18.932 39.6781 19.3068 43.4108 19.5741Z" fill="black"/>
<path d="M68.8021 31.3468C63.3345 31.2123 57.8669 31.0796 52.4788 31.962C72.6143 31.9889 92.7234 33.0866 112.753 35.253C104.13 32.2561 94.8518 31.9889 85.7574 31.7755C80.1063 31.641 74.4532 31.4814 68.8021 31.3468Z" fill="black"/>
<path d="M103.973 37.6887C107.469 38.0616 110.992 38.1423 114.488 37.929C111.018 37.1792 107.442 36.9659 103.893 36.7506C86.2039 35.7356 68.5392 34.7186 50.8499 33.6748C53.2677 34.9858 56.081 35.2261 58.7883 35.4126C73.6662 36.4564 88.5177 37.5272 103.394 38.571C103.842 38.6249 104.393 38.5979 104.629 38.1962C104.866 37.7944 104.105 37.2331 103.973 37.6887Z" fill="black"/>
<path d="M65.4647 38.3037C60.2071 37.9826 54.923 38.3825 49.7979 39.534C71.7988 39.4263 93.7998 39.8819 115.774 40.8719C109.807 38.8381 103.369 39.1591 97.086 39.2668C89.49 39.3456 81.9186 39.0515 74.3756 38.3306C71.4583 38.9457 68.435 38.517 65.4647 38.3037Z" fill="black"/>
<path d="M100.187 21.2064C99.6876 19.7608 102.001 18.371 102.974 19.5474C102.474 18.2095 104.052 16.9254 105.471 16.8446C106.864 16.7908 108.284 17.3809 109.677 17.2195C100.161 9.86264 88.5424 5.36627 76.6101 4.40318C71.5625 4.03024 66.4903 4.24362 61.4692 4.72421C50.1934 5.76804 39.0482 8.06909 28.27 11.5216C34.2901 14.5705 41.2825 14.8127 48.0102 14.9992C63.94 15.4278 79.8699 15.8546 95.7978 16.2833C96.9292 16.3102 98.1381 16.364 99.0576 17.033C100.004 17.7289 100.372 19.2533 99.5305 20.0299C98.6111 20.8585 96.9292 20.3241 96.1932 21.3141C97.5062 21.5544 98.874 21.5005 100.187 21.2064ZM77.4501 11.9484C77.5561 10.3432 76.3736 9.00528 75.2687 7.88263C75.6112 9.11293 75.9252 10.3701 76.2677 11.6274C76.4001 12.2156 76.1882 13.1537 75.6377 12.9115C74.7958 11.3602 74.2168 9.64734 73.9804 7.88263C73.4544 7.74806 73.1139 7.07908 73.3239 6.54467C73.8763 6.99835 74.6898 6.75805 75.3747 6.5985C76.9506 6.25055 78.5815 6.38319 80.1574 6.5985C85.521 7.31938 90.8032 8.7919 95.7713 10.9315C95.3778 11.4678 94.5359 11.1468 93.9589 10.8257C93.38 10.4778 92.5381 10.2106 92.171 10.7719C93.0375 11.1199 93.064 12.6443 92.1975 13.0191C92.6175 13.073 92.644 13.7689 92.3281 14.063C92.0121 14.3302 91.5391 14.3571 91.0926 14.3302C86.3345 14.1956 81.5518 14.0899 76.7936 13.9553C77.0831 13.3133 77.399 12.6443 77.4501 11.9484ZM65.9643 6.32937C66.5679 6.27747 67.2262 6.22364 67.7768 6.51776C68.3027 6.81188 68.6187 7.64041 68.2252 8.09601C67.3038 8.63042 66.5414 9.54161 66.3314 10.6104C66.1479 11.6543 66.5944 12.8577 67.5138 13.394C62.3622 13.3671 57.2105 13.3402 52.0588 13.2863C51.8753 12.1906 53.1637 11.414 53.4778 10.3432C53.7143 9.56853 53.4248 8.60543 53.9243 7.98836C54.3197 7.50777 54.9497 7.42703 55.5286 7.3732C58.9984 7.02526 62.4681 6.67731 65.9643 6.32937ZM31.2138 12.1368C31.1873 11.4947 31.8968 11.0929 32.5022 10.9046C34.6306 10.2625 36.8649 10.1029 39.0482 9.86264C41.8596 9.54161 44.6728 9.00528 47.4066 8.28247C47.2477 9.03219 47.1172 9.83573 46.6972 10.4778C46.3018 11.1468 45.5923 11.6543 44.8564 11.6274C40.3082 11.3332 35.7355 11.4947 31.2138 12.1368ZM96.2178 11.9215C96.4297 11.8696 96.6397 11.8158 96.8497 11.8696C97.1127 11.9215 97.3227 12.083 97.5592 12.2156C98.1381 12.5635 98.874 12.6174 99.557 12.725C101.685 13.0999 103.63 14.1956 105.524 15.2933C104.156 15.9353 102.607 15.8546 101.108 15.6681C98.7416 15.3471 96.3767 14.7589 94.1159 13.9553C93.8794 12.8846 95.1678 12.2156 96.2178 11.9215ZM70.3271 10.1029C69.6971 9.38014 69.5382 8.3363 69.4341 7.3732C69.3811 7.07908 69.3546 6.75805 69.4871 6.49085C69.6176 6.22364 70.0111 6.03525 70.223 6.25055C72.3249 7.77497 73.8233 10.1029 74.3758 12.6712C73.4298 12.1099 72.5084 11.5735 71.5625 11.0391C71.116 10.7719 70.6695 10.5047 70.3271 10.1029ZM50.4545 11.414C49.8245 11.6004 49.0621 11.6004 48.6421 12.1099C48.4056 12.404 48.3526 12.8327 48.1426 13.1537C47.9326 13.4478 47.3802 13.5805 47.2231 13.2594C48.0631 11.5216 49.0091 9.86264 50.0345 8.25748C50.744 7.88263 51.5859 7.72115 52.3748 7.80189C52.8213 9.24749 51.9018 11.0122 50.4545 11.414ZM69.3546 10.8527C69.7746 11.3602 69.0917 12.1906 68.4617 12.0291C67.8563 11.8696 67.5403 11.1199 67.6463 10.4778C67.7257 9.83573 68.1457 9.27248 68.5392 8.76498C68.9346 9.38014 69.1711 10.1299 69.1976 10.8796" fill="black"/>
</svg>
