<svg width="60" height="60" viewBox="0 0 60 60" fill="none" xmlns="http://www.w3.org/2000/svg">
<g clip-path="url(#clip0_18_4717)">
<path d="M35.3698 35.3422H30.2477C29.9332 34.6911 29.4447 34.1296 28.8269 33.7307L27.7655 33.0452V31.7745C27.7655 31.748 27.7633 31.7221 27.7615 31.6962C30.3481 29.9989 32.061 27.0747 32.061 23.7565V15.39C32.061 11.1149 28.5828 7.63672 24.3077 7.63672H20.8305C16.5553 7.63672 13.0771 11.1149 13.0771 15.39V23.7565C13.0771 27.0747 14.79 29.9989 17.3766 31.6962C17.3748 31.7223 17.3726 31.7481 17.3726 31.7746V33.046L16.3122 33.7308C15.6945 34.1297 15.2061 34.6912 14.8916 35.3423H9.76852C4.3826 35.3423 0.000717163 39.7242 0.000717163 45.1101V58.8282C0.000717163 59.4753 0.525352 60.0001 1.17256 60.0001H17.2959C17.9431 60.0001 18.4677 59.4753 18.4677 58.8282C18.4677 58.1811 17.9431 57.6564 17.2959 57.6564H9.63657V48.5979H35.5019V57.6564H27.8426C27.1954 57.6564 26.6707 58.1811 26.6707 58.8282C26.6707 59.4753 27.1954 60.0001 27.8426 60.0001H43.9658C44.613 60.0001 45.1376 59.4753 45.1376 58.8282V45.1099C45.1376 39.724 40.7559 35.3422 35.3698 35.3422V35.3422ZM11.1336 37.6859H13.6263V46.2541H11.1336V37.6859ZM15.97 40.3119L18.2425 43.1861C18.4467 43.4445 18.7504 43.6049 19.0791 43.6281C19.1067 43.6302 19.1343 43.631 19.1618 43.631C19.4614 43.631 19.7509 43.5162 19.9695 43.3082L22.5699 40.8341L25.1702 43.3082C25.3887 43.5161 25.6783 43.631 25.9779 43.631C26.0055 43.631 26.033 43.6301 26.0607 43.6281C26.3893 43.6049 26.693 43.4445 26.8973 43.1861L29.1685 40.3132V46.254H15.97V40.3119ZM31.5121 37.6859H34.0047V46.2541H31.5121V37.6859ZM28.2783 36.8007C28.3542 37.2589 28.2374 37.7118 27.9492 38.0762L25.8551 40.7251L24.1329 39.0865L26.9631 35.317L27.5555 35.6996C27.9457 35.9514 28.2023 36.3425 28.2783 36.8007ZM15.4209 15.39C15.4209 12.4072 17.8477 9.98041 20.8306 9.98041H24.3078C27.2908 9.98041 29.7174 12.4072 29.7174 15.39V16.6033H15.4209V15.39ZM29.525 18.947C29.0353 20.3916 27.6663 21.4341 26.0585 21.4341H19.08C17.4721 21.4341 16.1032 20.3917 15.6134 18.947H29.525ZM15.4209 23.7565V22.5288C16.4347 23.3109 17.7034 23.7777 19.0799 23.7777H26.0585C27.4349 23.7777 28.7037 23.3109 29.7174 22.5289V23.7565C29.7174 27.698 26.5108 30.9047 22.5692 30.9047C18.6277 30.9047 15.4209 27.6979 15.4209 23.7565V23.7565ZM22.5692 33.2483C23.5628 33.2483 24.521 33.0941 25.4218 32.8096V33.4056C25.4218 33.4248 25.4238 33.4436 25.4247 33.4626L22.5698 37.265L19.7164 33.4649V32.8096C20.6173 33.0941 21.5756 33.2483 22.5692 33.2483ZM16.8612 36.8007C16.9372 36.3425 17.1938 35.9514 17.5839 35.6995L18.1763 35.3169L21.0066 39.0864L19.2844 40.725L17.1902 38.0761C16.9021 37.7118 16.7854 37.2589 16.8612 36.8007V36.8007ZM2.34452 57.6563V45.1099C2.34452 41.3481 5.15754 38.233 8.78991 37.7523V46.254H8.46472C7.81751 46.254 7.29288 46.7787 7.29288 47.4258V57.6561H2.34452V57.6563ZM42.7939 57.6563H37.8456V47.4259C37.8456 46.7788 37.3209 46.2541 36.6737 46.2541H36.3485V37.7525C39.981 38.2331 42.7939 41.3483 42.7939 45.11V57.6563Z" fill="black"/>
<path d="M59.9994 9.90115C59.9994 4.44164 55.5577 0 50.0981 0C44.6385 0 40.1968 4.44164 40.1968 9.90115C40.1968 13.8701 42.5453 17.2991 45.9248 18.8768V23.9305L44.7558 25.0995C44.536 25.3192 44.4125 25.6174 44.4125 25.9281C44.4125 26.2389 44.536 26.5369 44.7558 26.7567L46.3413 28.3422L44.7558 29.9276C44.536 30.1475 44.4125 30.4455 44.4125 30.7562C44.4125 31.067 44.536 31.365 44.7558 31.5849L46.3413 33.1704L44.7558 34.7559C44.536 34.9757 44.4125 35.2737 44.4125 35.5845C44.4125 35.8953 44.536 36.1934 44.7558 36.4131L48.9269 40.5842C49.1468 40.804 49.4449 40.9274 49.7556 40.9274C49.7598 40.9274 49.7639 40.9274 49.7681 40.9273C50.0832 40.924 50.3837 40.7937 50.6017 40.5662L53.5512 37.4877C53.7601 37.2696 53.8768 36.9791 53.8768 36.677V19.0513C57.4669 17.5631 59.9994 14.023 59.9994 9.90115V9.90115ZM51.5331 36.2064L49.7376 38.0806L47.2417 35.5847L48.8272 33.9992C49.2848 33.5416 49.2848 32.7996 48.8272 32.3419L47.2417 30.7564L48.8272 29.171C49.0469 28.9511 49.1705 28.6531 49.1705 28.3424C49.1705 28.0316 49.0469 27.7336 48.8272 27.5138L47.2417 25.9282L47.9253 25.2447C48.145 25.025 48.2685 24.7269 48.2685 24.4161V19.6303C48.8619 19.7416 49.4728 19.8025 50.0981 19.8025C50.5856 19.8025 51.0644 19.7656 51.5331 19.6973V36.2064ZM50.0981 17.4586C45.9308 17.4586 42.5405 14.0684 42.5405 9.90115C42.5405 5.73396 45.9309 2.34369 50.0981 2.34369C54.2653 2.34369 57.6555 5.73396 57.6555 9.90115C57.6555 14.0684 54.2653 17.4586 50.0981 17.4586Z" fill="black"/>
<path d="M50.0981 5.06055C48.0567 5.06055 46.396 6.7214 46.396 8.76276C46.396 10.8041 48.0567 12.4649 50.0981 12.4649C52.1395 12.4649 53.8002 10.8041 53.8002 8.76276C53.8002 6.7214 52.1395 5.06055 50.0981 5.06055ZM50.0981 10.121C49.3491 10.121 48.7397 9.51169 48.7397 8.76264C48.7397 8.01348 49.3491 7.40412 50.0981 7.40412C50.8471 7.40412 51.4565 8.01348 51.4565 8.76264C51.4565 9.51169 50.8471 10.121 50.0981 10.121Z" fill="black"/>
<path d="M22.5692 60C23.2164 60 23.7411 59.4754 23.7411 58.8281C23.7411 58.1809 23.2164 57.6562 22.5692 57.6562C21.922 57.6562 21.3973 58.1809 21.3973 58.8281C21.3973 59.4754 21.922 60 22.5692 60Z" fill="black"/>
</g>
<defs>
<clipPath id="clip0_18_4717">
<rect width="60" height="60" fill="white"/>
</clipPath>
</defs>
</svg>
