<svg width="60" height="60" viewBox="0 0 60 60" fill="none" xmlns="http://www.w3.org/2000/svg">
<g clip-path="url(#clip0_18_4743)">
<path d="M57.4378 53.8909H56.8294V33.4441C56.8294 32.9724 56.4471 32.5902 55.9754 32.5902C55.5037 32.5902 55.1215 32.9724 55.1215 33.4441V53.8909H52.2012V5.48212C52.2012 5.03071 51.8508 4.66216 51.4073 4.63122C51.3981 4.63052 51.3888 4.63017 51.3796 4.62981C51.3688 4.62946 51.3582 4.62817 51.3473 4.62817H8.65264C8.64232 4.62817 8.63225 4.62935 8.62193 4.6297C8.60998 4.63017 8.59803 4.63052 8.58607 4.63146C8.56135 4.63333 8.53709 4.63649 8.51307 4.64048C8.50545 4.64177 8.49783 4.64247 8.49033 4.64399C8.45717 4.65032 8.42471 4.65853 8.39307 4.6686C8.39096 4.66931 8.38896 4.67024 8.38686 4.67083C8.35744 4.68044 8.32896 4.69181 8.30107 4.70446C8.29357 4.70786 8.28631 4.71149 8.27893 4.71513C8.25537 4.72661 8.2324 4.73915 8.21002 4.75274C8.20545 4.75544 8.20064 4.75743 8.19619 4.76036C8.19373 4.762 8.1915 4.76388 8.18904 4.76552C8.16103 4.78368 8.13396 4.8029 8.10842 4.82399C8.10748 4.82481 8.10666 4.82563 8.10584 4.82634C8.08193 4.84638 8.05932 4.86782 8.03775 4.89032C8.03096 4.89735 8.02451 4.90485 8.01795 4.91212C8.00213 4.9297 7.98713 4.94786 7.97283 4.96673C7.96709 4.97435 7.96123 4.98173 7.95584 4.98946C7.93838 5.01407 7.92209 5.0395 7.90732 5.06599C7.90639 5.06763 7.90533 5.06915 7.90439 5.07079C7.88834 5.09997 7.87428 5.13032 7.86162 5.16149C7.85928 5.16735 7.8574 5.17333 7.85518 5.17919C7.8458 5.20392 7.83748 5.22911 7.83033 5.25501C7.82787 5.2638 7.82564 5.27271 7.82353 5.28161C7.81768 5.30575 7.8131 5.33024 7.80935 5.35509C7.80807 5.36399 7.80631 5.37278 7.80525 5.38169C7.80139 5.41462 7.79881 5.44802 7.79881 5.482V53.8907H4.8785V33.4476C4.8785 32.9759 4.49623 32.5937 4.02455 32.5937C3.55287 32.5937 3.1706 32.9759 3.1706 33.4476V53.8909H2.56217C1.51287 53.8909 0.659042 54.7447 0.659042 55.794V58.097C0.659042 59.1463 1.51287 60.0001 2.56217 60.0001H57.4377C58.487 60.0001 59.3408 59.1463 59.3408 58.097V55.794C59.341 54.7447 58.4872 53.8909 57.4378 53.8909ZM50.4903 6.83247V53.8909H49.3427L38.6022 49.8759V12.4729L50.4903 6.83247ZM47.5522 6.33606L37.784 10.9707C37.2353 11.2311 36.8944 11.7499 36.8944 12.3246V50.0361C36.8944 50.6584 37.296 51.2108 37.9176 51.4434L44.4653 53.8909H15.5317L22.0794 51.4433C22.701 51.2109 23.1026 50.6586 23.1026 50.0361V12.3247C23.1026 11.7501 22.7618 11.2313 22.213 10.9708L12.4446 6.33606H47.5522ZM9.50646 6.83247L21.3946 12.4729V49.8761L10.6541 53.891H9.50646V6.83247ZM57.4379 58.2923H2.56228C2.45459 58.2923 2.36693 58.2047 2.36693 58.097V55.794C2.36693 55.6863 2.45459 55.5986 2.56228 55.5986H4.02455H8.65264H10.8085H49.1883H51.3442H51.3473H55.9755H57.4378C57.5455 55.5986 57.6331 55.6863 57.6331 55.794V58.097C57.6333 58.2047 57.5456 58.2923 57.4379 58.2923Z" fill="#FFAA17"/>
<path d="M54.6198 0H5.38018C4.16179 0 3.17073 0.991172 3.17073 2.20957V29.3359C3.17073 29.8076 3.553 30.1898 4.02468 30.1898C4.49636 30.1898 4.87862 29.8076 4.87862 29.3359V2.20957C4.87862 1.93289 5.10374 1.70777 5.38042 1.70777H54.62C54.8967 1.70777 55.1218 1.93289 55.1218 2.20957V29.3809C55.1218 29.8526 55.5041 30.2348 55.9758 30.2348C56.4475 30.2348 56.8297 29.8526 56.8297 29.3809V2.20957C56.8295 0.991172 55.8383 0 54.6198 0Z" fill="#FFAA17"/>
<path d="M47.71 10.9019C47.5492 10.9019 47.3889 10.9396 47.2464 11.0107L41.2834 13.9935C40.9444 14.1629 40.7338 14.5 40.7338 14.873V29.1833C40.7337 29.7346 41.1992 30.1862 41.7711 30.1899L47.7269 30.2284C47.7287 30.2284 47.7323 30.2284 47.7341 30.2284C48.3016 30.2284 48.763 29.7803 48.763 29.2293V11.9224C48.763 11.3597 48.2908 10.9019 47.71 10.9019ZM47.055 28.5163L42.4414 28.4865V15.3236L47.055 13.0159V28.5163Z" fill="#FFAA17"/>
<path d="M47.724 31.4353L41.7675 31.4952C41.1975 31.5013 40.7337 31.9533 40.7337 32.5026V47.5451C40.7336 47.9482 40.98 48.3069 41.3625 48.4595L47.3248 50.8281C47.4472 50.8767 47.5765 50.9013 47.7094 50.9013C48.2903 50.9013 48.7629 50.4431 48.7629 49.88V32.4337C48.7629 31.8832 48.3018 31.4353 47.724 31.4353ZM47.055 48.8832L42.4413 47.0504V33.1963L47.055 33.1498V48.8832Z" fill="#FFAA17"/>
<path d="M18.2291 31.4952L12.2623 31.4353C11.6953 31.4353 11.2342 31.8832 11.2342 32.4337V49.88C11.2341 50.4431 11.7067 50.9013 12.2876 50.9013C12.4205 50.9013 12.5497 50.8766 12.672 50.8281L18.6349 48.4594C19.0167 48.3075 19.2633 47.9485 19.2633 47.5452V32.5026C19.2633 31.9533 18.7995 31.5013 18.2291 31.4952ZM17.5555 47.0507L12.9418 48.8834V33.15L17.5555 33.1964V47.0507Z" fill="#FFAA17"/>
<path d="M18.714 13.9935L12.7506 11.0107C12.6082 10.9396 12.4479 10.9019 12.2871 10.9019C11.7064 10.9019 11.2341 11.3597 11.2341 11.9224V29.2294C11.2341 29.7803 11.6957 30.2285 12.2628 30.2285C12.2647 30.2285 12.2681 30.2285 12.27 30.2285L18.2259 30.19C18.7979 30.1863 19.2633 29.7347 19.2633 29.1833V14.873C19.2633 14.5003 19.053 14.1634 18.714 13.9935ZM17.5555 28.4865L12.9418 28.5163V13.0159L17.5555 15.3236V28.4865Z" fill="#FFAA17"/>
</g>
<defs>
<clipPath id="clip0_18_4743">
<rect width="60" height="60" fill="white"/>
</clipPath>
</defs>
</svg>
