<svg width="60" height="60" viewBox="0 0 60 60" fill="none" xmlns="http://www.w3.org/2000/svg">
<path d="M48.9428 41.6016H48.5156V40.5477C48.5146 39.915 48.3877 39.2888 48.1423 38.7056C47.8968 38.1225 47.5377 37.594 47.0859 37.151C46.6486 36.7168 46.1294 36.3737 45.5585 36.1417C44.9876 35.9096 44.3763 35.7931 43.76 35.799C42.5033 35.8041 41.2996 36.3064 40.4121 37.1962C39.5245 38.086 39.0253 39.2909 39.0234 40.5477V41.6016H38.5806C38.33 41.5991 38.0884 41.6953 37.9081 41.8695C37.7279 42.0436 37.6234 42.2817 37.6172 42.5323V50.787C37.6172 51.3047 38.0625 51.6797 38.5806 51.6797H48.9428C49.4605 51.6797 49.9219 51.3047 49.9219 50.787V42.5323C49.9121 42.2802 49.8043 42.0418 49.6215 41.868C49.4386 41.6941 49.1951 41.5986 48.9428 41.6016ZM40.8984 40.5477C40.8979 39.7879 41.1985 39.0588 41.7345 38.5202C42.2704 37.9816 42.998 37.6773 43.7578 37.674C44.1283 37.6701 44.4959 37.7396 44.8394 37.8783C45.183 38.0171 45.4957 38.2225 45.7595 38.4826C46.0357 38.7514 46.2559 39.0723 46.4072 39.4268C46.5584 39.7813 46.6378 40.1623 46.6406 40.5477V41.6016H40.8984V40.5477ZM48.0469 49.8047H39.4922V43.4766H48.0469V49.8047Z" fill="#FFAA17"/>
<path d="M43.7109 48.7382C43.9596 48.7382 44.198 48.6395 44.3739 48.4636C44.5497 48.2878 44.6484 48.0494 44.6484 47.8007V46.5718C44.6484 46.3231 44.5497 46.0847 44.3739 45.9089C44.198 45.733 43.9596 45.6343 43.7109 45.6343C43.4623 45.6343 43.2238 45.733 43.048 45.9089C42.8722 46.0847 42.7734 46.3231 42.7734 46.5718V47.8007C42.7734 48.0494 42.8722 48.2878 43.048 48.4636C43.2238 48.6395 43.4623 48.7382 43.7109 48.7382Z" fill="#FFAA17"/>
<path d="M49.8312 32.2067C50.2424 30.4393 50.4497 28.6307 50.449 26.8161C50.449 13.7848 39.8474 3.18335 26.8164 3.18335C13.7854 3.18335 3.18365 13.7852 3.18365 26.8163C3.18365 39.8475 13.7853 50.4492 26.8164 50.4492C28.631 50.4499 30.4396 50.2426 32.207 49.8314C33.1583 51.6432 34.5223 53.206 36.1888 54.3936C37.8553 55.5812 39.7778 56.3603 41.8009 56.668C43.824 56.9757 45.8911 56.8035 47.8354 56.1651C49.7797 55.5268 51.5466 54.4403 52.9936 52.9932C54.4406 51.5462 55.5271 49.7792 56.1654 47.8349C56.8037 45.8906 56.9759 43.8235 56.6681 41.8004C56.3603 39.7773 55.5811 37.8549 54.3935 36.1884C53.2059 34.5219 51.6431 33.1579 49.8312 32.2067ZM43.7617 30.7067C42.6391 30.7094 41.5215 30.8571 40.4367 31.1463C40.5789 30.027 40.6642 28.9013 40.6923 27.7734H48.5516C48.4944 29.0102 48.3362 30.2402 48.0785 31.4512C46.692 30.9608 45.2324 30.7091 43.7617 30.7069V30.7067ZM9.78049 40.3442C6.92816 36.754 5.2831 32.3543 5.08022 27.7734H12.939C12.9995 30.7783 13.4871 33.7594 14.3872 36.627C12.7016 37.6676 11.1538 38.9165 9.78049 40.3442V40.3442ZM14.3876 17.0295C13.4874 19.9023 12.9996 22.8884 12.939 25.8984H5.08022C5.26236 21.3087 6.90956 16.898 9.78049 13.3125C11.1538 14.7402 12.7017 15.9891 14.3876 17.0295V17.0295ZM43.8553 13.3125C46.7246 16.8987 48.3706 21.3092 48.5524 25.8984H40.6936C40.6339 22.8977 40.1486 19.9207 39.2522 17.0565C40.9395 16.0092 42.4863 14.751 43.8553 13.3125V13.3125ZM38.8184 25.8984H27.7735V20.5265C31.191 20.4066 34.5412 19.5424 37.5903 17.9942C38.3496 20.5625 38.7626 23.2207 38.8184 25.8984V25.8984ZM27.7735 18.65V5.35917C31.9922 7.61175 35.1328 11.3975 36.9833 16.1929C34.1378 17.6956 30.9894 18.5355 27.7735 18.65ZM25.8985 18.6459C22.6852 18.517 19.5414 17.6708 16.6976 16.1694C18.5499 11.3851 21.6797 7.60811 25.8985 5.35917V18.6459ZM25.8985 20.5224V25.8984H14.8144C14.8773 23.2116 15.2993 20.5454 16.0692 17.9705C19.1188 19.532 22.4745 20.4032 25.8985 20.5224V20.5224ZM14.8143 27.7734H25.8985V33.1098C22.4729 33.2353 19.117 34.1131 16.0688 35.681C15.299 33.113 14.877 30.4535 14.8143 27.7734V27.7734ZM25.8985 34.9867V48.2745C21.6797 46.0251 18.5496 42.2478 16.6974 37.4633C19.5415 35.9624 22.6852 35.1162 25.8985 34.9867ZM30.707 43.7616C30.7101 44.5543 30.7853 45.345 30.9315 46.124C29.9437 46.9312 28.887 47.6501 27.7735 48.2725V34.9804C29.6603 35.0501 31.5296 35.3702 33.3321 35.9322C31.6291 38.1872 30.7075 40.9358 30.707 43.7616V43.7616ZM34.6797 34.4028C32.4568 33.6225 30.128 33.185 27.7735 33.1054V27.7734H38.8165C38.7821 29.1391 38.6587 30.5011 38.4471 31.8507C37.0517 32.4742 35.7767 33.3381 34.6801 34.4028H34.6797ZM42.6211 11.8783C41.4241 13.1558 40.0754 14.2822 38.605 15.2322C37.033 11.2908 34.6197 7.98522 31.5056 5.56894C35.7589 6.51177 39.6312 8.70976 42.6211 11.8783V11.8783ZM22.1277 5.56894C19.0196 7.98101 16.6088 11.279 15.0366 15.2109C13.5666 14.2649 12.2163 13.1448 11.0149 11.875C14.0046 8.70817 17.8758 6.51139 22.1277 5.56894V5.56894ZM11.0149 41.7573C12.2162 40.4875 13.5664 39.3674 15.0362 38.4215C16.6082 42.353 19.018 45.6509 22.1261 48.0631C17.8748 47.1205 14.0041 44.9238 11.0149 41.7573V41.7573ZM43.7617 54.9408C41.5506 54.9408 39.3891 54.2852 37.5506 53.0567C35.7121 51.8283 34.2792 50.0823 33.433 48.0394C32.5869 45.9966 32.3655 43.7488 32.7968 41.5801C33.2282 39.4115 34.293 37.4194 35.8565 35.8559C37.42 34.2924 39.412 33.2277 41.5807 32.7963C43.7493 32.3649 45.9972 32.5863 48.04 33.4325C50.0828 34.2786 51.8288 35.7116 53.0573 37.5501C54.2857 39.3886 54.9414 41.55 54.9414 43.7612C54.9382 46.7253 53.7593 49.567 51.6634 51.663C49.5675 53.759 46.7258 54.938 43.7617 54.9413V54.9408Z" fill="#FFAA17"/>
</svg>
