<svg width="60" height="60" viewBox="0 0 60 60" fill="none" xmlns="http://www.w3.org/2000/svg">
<g clip-path="url(#clip0_18_4724)">
<path d="M21.0861 6.61523H27.3742C27.8596 6.61523 28.2531 6.22184 28.2531 5.73633C28.2531 5.25082 27.8596 4.85742 27.3742 4.85742H21.0861C20.6007 4.85742 20.2072 5.25082 20.2072 5.73633C20.2072 6.22184 20.6007 6.61523 21.0861 6.61523Z" fill="#FFAA17"/>
<path d="M18.927 42.7092H16.6849C16.1995 42.7092 15.806 43.1026 15.806 43.5881C15.806 44.0736 16.1995 44.467 16.6849 44.467H18.927C19.4124 44.467 19.8059 44.0736 19.8059 43.5881C19.8059 43.1026 19.4124 42.7092 18.927 42.7092Z" fill="#FFAA17"/>
<path d="M31.1543 42.7092H28.9088C28.4234 42.7092 28.0298 43.1026 28.0298 43.5881C28.0298 44.0736 28.4234 44.467 28.9088 44.467H31.1543C31.6397 44.467 32.0332 44.0736 32.0332 43.5881C32.0332 43.1026 31.6397 42.7092 31.1543 42.7092Z" fill="#FFAA17"/>
<path d="M44.305 37.7565C43.7406 37.7565 43.1861 37.7991 42.6441 37.8805C40.9177 33.4396 35.9662 32.1579 31.5683 31.0221C30.6228 30.778 29.7194 30.5447 28.8742 30.2883V28.8407C31.2112 27.3689 33.1615 25.0761 34.1665 22.6864C36.4757 22.3788 38.7337 20.9828 38.7298 18.7677V18.1238C38.7258 16.8939 37.9259 15.8489 36.8257 15.487C37.0102 14.4454 36.6259 13.3464 35.7569 12.6589V8.46012C35.7569 5.79715 34.427 3.57234 31.9111 2.02605C29.7855 0.719531 26.9448 0 23.9126 0C20.8818 0 18.0435 0.71918 15.9204 2.025C13.4073 3.5707 12.079 5.79598 12.079 8.46012V12.6593C11.5163 13.1054 11.1396 13.7347 11.0121 14.4505C10.95 14.7991 10.951 15.1488 11.0107 15.4868C9.91022 15.8486 9.10994 16.8941 9.10596 18.1266V18.7662C9.10221 20.9762 11.3578 22.369 13.665 22.6764C14.6687 25.0697 16.6212 27.3669 18.9615 28.8407V30.2883C18.1164 30.5447 17.213 30.7782 16.2675 31.0225C11.1102 32.3549 4.69186 34.0132 4.57537 41.2155C4.57537 41.2202 4.57526 41.225 4.57526 41.2297V49.687C4.57526 50.7468 5.4374 51.6089 6.49713 51.6089H33.5219C34.743 56.4257 39.1143 60 44.305 60C50.4365 60 55.4248 55.01 55.4248 48.8766C55.4248 42.745 50.4365 37.7565 44.305 37.7565V37.7565ZM40.909 38.2873C39.681 38.6818 38.5455 39.2842 37.544 40.053V34.9009C39.0335 35.7016 40.2378 36.7629 40.909 38.2873ZM36.972 18.7692C36.9736 19.7058 35.9649 20.4304 34.7565 20.7743C34.849 20.2956 34.8999 19.8206 34.8999 19.3556V17.7504C35.2856 17.6152 35.6464 17.4 35.9535 17.1087H35.9774C36.5147 17.1087 36.9702 17.5761 36.972 18.1267V18.7692ZM23.9126 1.75781C26.5851 1.75781 29.1649 2.40141 30.9907 3.52359C32.3631 4.36711 33.999 5.90824 33.999 8.46012V11.5248C30.8527 9.70711 27.4028 8.75379 23.9192 8.75379C20.4353 8.75379 16.9846 9.70734 13.8368 11.5253V8.46012C13.8368 3.85512 19.0599 1.75781 23.9126 1.75781V1.75781ZM10.8639 18.7677V18.1295C10.8656 17.5761 11.3212 17.1087 11.8585 17.1087H11.884C12.1846 17.3954 12.5419 17.6135 12.936 17.7512V19.3555C12.936 19.8176 12.9863 20.2895 13.0776 20.765C11.8703 20.4226 10.8622 19.701 10.8639 18.7677V18.7677ZM14.6938 19.3556V17.8144C15.015 17.7265 15.3224 17.5853 15.6031 17.3892C17.6828 15.9394 19.9099 15.0559 22.2229 14.7632C22.7044 14.7022 23.0454 14.2625 22.9845 13.7809C22.9235 13.2993 22.484 12.9573 22.0022 13.0193C19.4043 13.348 16.9131 14.3331 14.5971 15.9477C14.3371 16.1293 14.0209 16.1988 13.7066 16.1422C13.3923 16.0861 13.1197 15.9118 12.9376 15.65C12.756 15.3899 12.6867 15.0734 12.7428 14.7586C12.7988 14.4443 12.9722 14.1717 13.2313 13.991C19.9245 9.32414 27.9143 9.32414 34.6055 13.9917C35.144 14.366 35.2763 15.1107 34.9014 15.65C34.5235 16.1907 33.7776 16.3242 33.2385 15.9476C31.0804 14.4408 28.7563 13.4793 26.3309 13.0897C25.851 13.0131 25.4006 13.339 25.3238 13.8183C25.2469 14.2976 25.5729 14.7485 26.0522 14.8254C28.214 15.1724 30.2931 16.0349 32.232 17.3888C32.5166 17.5876 32.8246 17.7285 33.1419 17.815V19.3555C33.1419 22.7114 29.8708 26.8682 26.1417 28.2511C25.3076 28.5605 24.6014 28.7045 23.9195 28.7045C23.2353 28.7045 22.528 28.5605 21.694 28.2511C17.965 26.8683 14.6938 22.7115 14.6938 19.3556V19.3556ZM21.0829 29.8995C22.1188 30.2836 23.0202 30.4625 23.9196 30.4625C24.8168 30.4625 25.7172 30.2837 26.7531 29.8995C26.8749 29.8543 26.9959 29.8058 27.1165 29.7559V30.9323C27.1165 32.7593 25.6824 34.2455 23.9196 34.2455C22.155 34.2455 20.7195 32.7592 20.7195 30.9323V29.7559C20.8401 29.8057 20.9611 29.8542 21.0829 29.8995V29.8995ZM6.33307 49.6871V41.237C6.3878 38.0033 8.00475 36.1437 10.2919 34.9066V49.8512H6.49713C6.40819 49.8512 6.33307 49.7761 6.33307 49.6871ZM12.0497 49.8512V34.1101C12.7108 33.8569 13.4021 33.6329 14.1086 33.4257V37.4462C14.1086 39.1417 15.4893 40.5209 17.1865 40.5209H21.8635C22.3489 40.5209 22.7424 40.1275 22.7424 39.642C22.7424 39.1564 22.3489 38.763 21.8635 38.763H17.1865C16.4587 38.763 15.8664 38.1723 15.8664 37.4462V32.9428C16.1466 32.8695 16.4271 32.7969 16.7072 32.7245C17.5344 32.5107 18.3278 32.304 19.0916 32.0817C19.6023 34.3257 21.5724 36.0033 23.9195 36.0033C26.2651 36.0033 28.2339 34.3257 28.7442 32.0817C29.5081 32.304 30.3015 32.5106 31.1288 32.7243C31.4087 32.7966 31.6892 32.869 31.9694 32.9423V37.4463C31.9694 38.1724 31.3772 38.7632 30.6492 38.7632H25.9225C25.4371 38.7632 25.0436 39.1566 25.0436 39.6421C25.0436 40.1276 25.4371 40.521 25.9225 40.521H30.6492C32.3464 40.521 33.7272 39.1417 33.7272 37.4463V33.4254C34.4336 33.6322 35.1247 33.8559 35.786 34.1084V41.7353C34.1617 43.6686 33.1818 46.1603 33.1818 48.8768C33.1818 49.2053 33.1969 49.5302 33.225 49.8514H12.0497V49.8512ZM44.305 58.2422C39.141 58.2422 34.9397 54.0408 34.9397 48.8766C34.9397 43.7142 39.141 39.5143 44.305 39.5143C49.4672 39.5143 53.667 43.7142 53.667 48.8766C53.667 54.0408 49.4672 58.2422 44.305 58.2422Z" fill="#FFAA17"/>
<path d="M49.2316 43.7541C48.9723 43.4949 48.6271 43.3521 48.2595 43.3521C47.8919 43.3521 47.5466 43.4949 47.2877 43.754L43.1393 47.9023C41.8029 47.1185 40.0524 47.299 38.9069 48.4443C38.2469 49.1043 37.8838 49.9818 37.8846 50.9152C37.8853 51.8464 38.2484 52.721 38.9069 53.3779C39.5871 54.0582 40.4806 54.3981 41.3739 54.3981C42.2669 54.398 43.1598 54.0583 43.8392 53.3788C44.4984 52.722 44.8618 51.847 44.8625 50.9153C44.863 50.2826 44.6958 49.6758 44.3829 49.1449L45.8928 47.6349L46.8591 48.6012C47.0307 48.7728 47.2557 48.8586 47.4805 48.8586C47.7054 48.8586 47.9304 48.7728 48.102 48.6012C48.4452 48.2579 48.4452 47.7015 48.102 47.3582L47.1358 46.392L48.2591 45.2685L49.2234 46.2352C49.566 46.5792 50.1225 46.5796 50.4663 46.237C50.81 45.8941 50.8107 45.3377 50.4679 44.9941L49.2316 43.7541ZM42.5973 52.1349C41.9226 52.81 40.8246 52.81 40.1499 52.1349C40.1495 52.1346 40.1492 52.1343 40.1488 52.134C39.8227 51.8089 39.6428 51.3754 39.6425 50.9138C39.6421 50.4506 39.8222 50.015 40.1499 49.6874C40.4873 49.3499 40.9305 49.1813 41.3737 49.1813C41.8169 49.1813 42.26 49.3499 42.5973 49.6874C42.9249 50.015 43.1051 50.4506 43.1048 50.9138C43.1044 51.3754 42.9245 51.8089 42.5973 52.1349V52.1349Z" fill="#FFAA17"/>
</g>
<defs>
<clipPath id="clip0_18_4724">
<rect width="60" height="60" fill="white"/>
</clipPath>
</defs>
</svg>
