<svg width="60" height="60" viewBox="0 0 60 60" fill="none" xmlns="http://www.w3.org/2000/svg">
<g clip-path="url(#clip0_18_4732)">
<path d="M31.9392 27.8153V36.5756C31.9392 37.061 32.3327 37.4545 32.8181 37.4545C33.3035 37.4545 33.697 37.061 33.697 36.5756V28.4012L35.6072 29.038C36.7844 29.4305 37.5755 30.5279 37.5755 31.7689V33.7576C37.5755 34.243 37.969 34.6365 38.4544 34.6365C38.9398 34.6365 39.3333 34.243 39.3333 33.7576V31.7689C39.3333 29.7701 38.0592 28.0024 36.163 27.3704L29.3866 25.1116C28.5935 24.8473 28.0606 24.108 28.0606 23.2719V20.5713C30.3399 18.868 31.8182 16.1489 31.8182 13.091V11.7216C31.922 11.664 32.0212 11.597 32.1136 11.5186C32.5229 11.1708 32.7576 10.6635 32.7576 10.1269V6.51527C32.7576 2.92266 29.835 0 26.2425 0H17.788C14.7135 0 12.2121 2.50137 12.2121 5.5759V9.2066C12.2121 9.87914 12.5692 10.4783 13.1515 10.7981V13.091C13.1515 16.1489 14.6298 18.8679 16.9091 20.5713V23.2719C16.9091 24.1079 16.3762 24.8473 15.5831 25.1116L8.80663 27.3704C6.91042 28.0025 5.63635 29.7702 5.63635 31.7689V42.2121C5.63635 42.6975 6.02987 43.091 6.51526 43.091C7.00065 43.091 7.39417 42.6975 7.39417 42.2121V31.7689C7.39417 30.5279 8.18518 29.4305 9.36245 29.038L11.2726 28.4012V42.212C11.2726 42.6974 11.6661 43.0909 12.1515 43.0909C12.6369 43.0909 13.0304 42.6974 13.0304 42.212V27.8153L15.0302 27.1487V30.9394C15.0302 32.46 16.2674 33.697 17.7879 33.697H27.1817C28.7024 33.697 29.9394 32.4599 29.9394 30.9394V27.1487L31.9392 27.8153ZM14.9093 13.091V10.7982C15.0085 10.7428 15.1043 10.6785 15.1944 10.6034L18.802 7.59715C19.7863 8.18637 22.0004 9.41016 25.0118 10.4678C25.47 10.6288 25.9714 10.3877 26.1323 9.92977C26.2932 9.4718 26.0523 8.97012 25.5943 8.80922C21.7626 7.46344 19.2395 5.8002 19.215 5.78391C18.8912 5.56805 18.4638 5.59078 18.1649 5.84004L14.0692 9.25313C14.0553 9.26461 14.0398 9.27785 14.0048 9.26133C13.97 9.24504 13.97 9.22465 13.97 9.2066V5.5759C13.97 3.47063 15.6828 1.75781 17.7881 1.75781H26.2426C28.8658 1.75781 31.0001 3.89191 31.0001 6.51527V10.1269C31.0001 10.1529 30.9867 10.1696 30.9755 10.1793C30.9602 10.1923 30.951 10.1906 30.946 10.1898C30.3875 10.0986 29.8179 9.98824 29.2527 9.8618C28.7788 9.75586 28.3091 10.0539 28.203 10.5275C28.097 11.0012 28.3951 11.4711 28.8688 11.5772C29.2656 11.666 29.6644 11.7465 30.0607 11.8194V13.0911C30.0607 17.2684 26.6623 20.6667 22.4851 20.6667C18.308 20.6667 14.9093 17.2682 14.9093 13.091ZM22.4849 22.4244C23.8448 22.4244 25.1365 22.1296 26.303 21.6045V23.2719C26.303 24.4554 26.8638 25.5363 27.7713 26.2213C26.0958 26.8984 24.3223 27.2423 22.485 27.2423C20.6476 27.2423 18.8741 26.8984 17.1985 26.2213C18.106 25.5363 18.6669 24.4554 18.6669 23.2719V21.6045C19.8333 22.1296 21.1249 22.4244 22.4849 22.4244ZM27.1819 31.9392H17.788C17.2366 31.9392 16.7881 31.4906 16.7881 30.9394V27.9503C18.5996 28.6473 20.51 29.0002 22.485 29.0002C24.4599 29.0002 26.3703 28.6473 28.1818 27.9503V30.9394C28.1817 31.4907 27.7331 31.9392 27.1819 31.9392Z" fill="#FFAA17"/>
<path d="M16.8485 35.6968H15.9091C15.4237 35.6968 15.0302 36.0903 15.0302 36.5757C15.0302 37.0611 15.4237 37.4546 15.9091 37.4546H16.8485C17.3339 37.4546 17.7274 37.0611 17.7274 36.5757C17.7274 36.0903 17.334 35.6968 16.8485 35.6968Z" fill="#FFAA17"/>
<path d="M29.0607 35.6968H28.1213C27.6359 35.6968 27.2424 36.0903 27.2424 36.5757C27.2424 37.0611 27.6359 37.4546 28.1213 37.4546H29.0607C29.546 37.4546 29.9396 37.0611 29.9396 36.5757C29.9396 36.0903 29.546 35.6968 29.0607 35.6968Z" fill="#FFAA17"/>
<path d="M42.212 35.6968C35.5116 35.6968 30.0605 41.148 30.0605 47.8484C30.0605 54.5489 35.5117 60 42.212 60C48.9123 60 54.3637 54.5488 54.3637 47.8484C54.3637 41.1481 48.9124 35.6968 42.212 35.6968ZM42.212 58.2422C36.4808 58.2422 31.8183 53.5795 31.8183 47.8484C31.8183 42.1174 36.481 37.4546 42.212 37.4546C47.9431 37.4546 52.6058 42.1173 52.6058 47.8484C52.6058 53.5796 47.9432 58.2422 42.212 58.2422Z" fill="#FFAA17"/>
<path d="M45.9091 44.0908C45.9091 42.0522 44.2505 40.3938 42.2119 40.3938C40.1733 40.3938 38.5149 42.0522 38.5149 44.0908C38.5149 45.8266 39.7175 47.2859 41.333 47.6816V54.4242C41.333 54.9096 41.7265 55.3031 42.2119 55.3031C42.6973 55.3031 43.0908 54.9096 43.0908 54.4242V53.4243H44.0907C44.5761 53.4243 44.9696 53.0308 44.9696 52.5454C44.9696 52.0601 44.5761 51.6665 44.0907 51.6665H43.0908V47.6816C44.7065 47.2859 45.9091 45.8265 45.9091 44.0908ZM40.2727 44.0908C40.2727 43.0215 41.1426 42.1516 42.2119 42.1516C43.2813 42.1516 44.1513 43.0215 44.1513 44.0908C44.1513 45.1602 43.2813 46.0302 42.2119 46.0302C41.1426 46.0302 40.2727 45.1602 40.2727 44.0908Z" fill="#FFAA17"/>
</g>
<defs>
<clipPath id="clip0_18_4732">
<rect width="60" height="60" fill="white"/>
</clipPath>
</defs>
</svg>
