<svg width="60" height="60" viewBox="0 0 60 60" fill="none" xmlns="http://www.w3.org/2000/svg">
<path d="M30.0446 4.10107C19.5246 4.10107 10.9659 12.6598 10.9659 23.1798V55.2749C10.9659 55.8098 11.3225 56.1665 11.8574 56.1665H48.2319C48.7668 56.1665 49.1234 55.8098 49.1234 55.2749V23.1798C49.1234 12.6598 40.5647 4.10107 30.0446 4.10107ZM17.4741 11.3225L27.905 22.2883H12.7489C13.0164 18.009 14.7995 14.1754 17.4741 11.3225ZM29.1531 54.3834H12.7489V40.1189H29.1531V54.3834V54.3834ZM29.1531 38.3358H12.7489V24.0714H29.1531V38.3358V38.3358ZM29.1531 20.951L18.8114 10.0743C21.6643 7.6672 25.2304 6.15159 29.1531 5.88414V20.951ZM47.2512 22.2883H32.1843L42.6152 11.3225C45.379 14.1754 47.0729 18.009 47.2512 22.2883ZM30.9362 5.88414C34.8589 6.06244 38.5142 7.57804 41.2779 10.0743L30.9362 20.951V5.88414ZM47.3403 54.3834H30.9362V40.1189H47.3403V54.3834ZM47.3403 38.3358H30.9362V24.0714H47.3403V38.3358Z" fill="#FFAA17"/>
<path d="M46.2704 6.50817C42.0802 2.31798 36.2853 0 30.0446 0C17.474 0 7.66716 9.09361 7.04309 21.2184V59.1085C7.04309 59.6434 7.3997 60 7.93462 60H52.0654C52.6003 60 52.9569 59.6434 52.9569 59.1085V21.2184C52.6894 15.7801 50.2823 10.4309 46.2704 6.50817ZM51.263 58.3061H8.9153V21.3076C9.36107 10.1634 18.5438 1.78306 30.0446 1.78306C39.9406 1.78306 50.6389 9.09361 51.263 21.3076V58.3061Z" fill="#FFAA17"/>
</svg>
